<svg xmlns="http://www.w3.org/2000/svg" width="32.408" height="32.408" viewBox="0 0 32.408 32.408">
  <g id="Accessbility" transform="translate(-560.665 -874.483)">
    <path id="Path_2884" data-name="Path 2884" d="M593.073,890.688a16.2,16.2,0,1,1-16.2-16.205A16.2,16.2,0,0,1,593.073,890.688Z" fill="#794515" fill-rule="evenodd"/>
    <path id="Path_2885" data-name="Path 2885" d="M564.485,895.706h7.408v7.36h.335v-7.7h-7.743Z" fill="#fff"/>
    <g id="Group_232" data-name="Group 232">
      <path id="Path_2886" data-name="Path 2886" d="M581.02,886.536v-8.223h-3.4v2.75h-1.5v-2.75h-3.4v8.223h-8.229v8.306h8.229v8.224h3.4v-2.741h1.5v2.741h3.4v-8.224h8.232v-8.306Zm-13.785,4.9H564.49v-1.5h2.745Zm4.4,0H568.89v-1.5h2.741Zm5.986,7.23h-1.5v-2.745h1.5Zm0-4.4h-1.5v-2.746h1.5Zm0-4.4h-1.5v-2.75h1.5Zm0-4.4h-1.5v-2.755h1.5Zm7.231,5.973h-2.754v-1.5h2.754Zm4.4,0H586.5v-1.5h2.75Z" fill="#fff"/>
      <path id="Path_2887" data-name="Path 2887" d="M572.229,878.313h-.335v7.36h-7.408v.335h7.743Z" fill="#fff"/>
      <path id="Path_2888" data-name="Path 2888" d="M581.845,885.673v-7.36h-.335v7.7h7.743v-.335Z" fill="#fff"/>
    </g>
    <path id="Path_2889" data-name="Path 2889" d="M581.51,903.066h.335v-7.36h7.408v-.335H581.51Z" fill="#fff"/>
  </g>
</svg>
