<svg xmlns="http://www.w3.org/2000/svg" width="32.407" height="32.407" viewBox="0 0 32.407 32.407">
  <g id="Education" transform="translate(-201.555 -562.164)">
    <path id="Path_2869" data-name="Path 2869" d="M233.962,578.368a16.2,16.2,0,1,1-16.2-16.2A16.191,16.191,0,0,1,233.962,578.368Z" fill="#794515" fill-rule="evenodd"/>
    <g id="Group_224" data-name="Group 224">
      <path id="Path_2870" data-name="Path 2870" d="M229.407,585.093a8.915,8.915,0,0,1-1.435-3.257c-.017-.154-.06-.314-.064-.477a.133.133,0,0,1,.055-.142,1.2,1.2,0,0,0-.109-2.11c-.071-.042-.071-.094-.09-.167a7.05,7.05,0,0,0-.148-1.612,3.715,3.715,0,0,0-.985-1.8c-.026-.025-.045-.054-.077-.089,0,0-.009,0-.021-.035.034,0,.072-.03.111-.039.814-.266,1.612-.546,2.426-.825a1.622,1.622,0,0,0,.428-.219c.231-.146.231-.361,0-.519a3.5,3.5,0,0,0-.452-.22q-3.876-1.308-7.773-2.63c-1.173-.394-2.348-.795-3.515-1.2-.062-.026-.129-.048-.193-.069h-.142c-.064.021-.12.043-.2.069-1.794.614-3.6,1.255-5.4,1.856l-5.864,2.02a1.888,1.888,0,0,0-.459.24.279.279,0,0,0,0,.482,1.95,1.95,0,0,0,.425.214c1.444.511,2.892.984,4.336,1.492,2.253.773,4.507,1.559,6.776,2.333a1.084,1.084,0,0,0,.64.034q2.943-1.019,5.878-2.016a.509.509,0,0,0,.133-.047c-.038-.017-.055-.039-.081-.046-2.084-.83-4.151-1.655-6.235-2.489a.536.536,0,0,1-.341-.734.555.555,0,0,1,.762-.315c.266.108.537.22.791.332,2.213.876,4.421,1.779,6.621,2.668.056.03.114.047.159.077a2.966,2.966,0,0,1,.782.908,5.107,5.107,0,0,1,.559,2.337.182.182,0,0,1-.09.129,1.222,1.222,0,0,0-.065,1.869.219.219,0,0,1,.077.167c-.026.542-.064,1.079-.086,1.611a7.421,7.421,0,0,0,.164,2.149,2.787,2.787,0,0,0,1.585,2.011.212.212,0,0,0,.187.018c.269-.118.553-.216.814-.362.3-.176.591-.4.872-.585v-.03C229.906,585.754,229.645,585.436,229.407,585.093Z" fill="#fff" fill-rule="evenodd"/>
      <path id="Path_2871" data-name="Path 2871" d="M224.943,578.69a.456.456,0,0,1,0-.133V577.41a1.708,1.708,0,0,1-.164.056c-2.35.79-4.718,1.6-7.066,2.406a.91.91,0,0,1-.582.013q-3.677-1.27-7.318-2.535a.331.331,0,0,1-.116-.035v.177c0,1.193,0,2.38-.012,3.571a1.22,1.22,0,0,0,.691,1.113,13.75,13.75,0,0,0,3,1.223,15.925,15.925,0,0,0,5.664.53A13.606,13.606,0,0,0,224.3,582.4a1.107,1.107,0,0,0,.476-.542.186.186,0,0,0-.034-.224,1.832,1.832,0,0,1-.023-2.187A1.062,1.062,0,0,0,224.943,578.69Z" fill="#fff" fill-rule="evenodd"/>
    </g>
  </g>
</svg>
