<svg xmlns="http://www.w3.org/2000/svg" width="32.407" height="32.407" viewBox="0 0 32.407 32.407">
  <g id="Recreation" transform="translate(-560.999 -721.041)">
    <path id="Path_2878" data-name="Path 2878" d="M593.406,737.245a16.2,16.2,0,1,1-16.2-16.2A16.2,16.2,0,0,1,593.406,737.245Z" fill="#794515" fill-rule="evenodd"/>
    <g id="Group_230" data-name="Group 230">
      <path id="Path_2879" data-name="Path 2879" d="M581.873,735.281c0,.606,0,1.216,0,1.823a.226.226,0,0,0,.2.261c.361.09.713.211,1.066.323.6-.894,1.224-1.2,2.036-1.006.8.189,1.207.765,1.332,1.865a2.435,2.435,0,0,1,.426.129.7.7,0,0,1,.36.834c-.077.215.013.3.168.408a17.952,17.952,0,0,1,3.858,3.669c.031.039.061.086.112.155H574.207a2.91,2.91,0,0,1,.091-.379,4.11,4.11,0,0,1,1.487-1.976,15.171,15.171,0,0,1,1.263-.867,3.78,3.78,0,0,0,1.5-1.535,2.227,2.227,0,0,0-.035-2.092c-.026-.047-.051-.1-.1-.185a17.212,17.212,0,0,1,2.746.413v-1.793l-.009.009c.245-.013.486-.03.727-.047Z" fill="#fff" fill-rule="evenodd"/>
      <path id="Path_2880" data-name="Path 2880" d="M571.29,735.861v1.819c.335-.109.662-.211.984-.306a17.571,17.571,0,0,1,3.828-.684c.039,0,.086-.016.117,0a1.827,1.827,0,0,1,1.073,1.032.976.976,0,0,1-.373,1.065,5.059,5.059,0,0,1-.791.571,8.507,8.507,0,0,0-2.664,2.4,4.012,4.012,0,0,0-.7,1.839c-.005.043-.022.09-.035.15h-9.762a18.161,18.161,0,0,1,3.055-3.119,5.431,5.431,0,0,1-.189-.911.772.772,0,0,1,.825-.8c.782,0,.8-.013.846-.777a1.062,1.062,0,0,1,2.106-.112c.017.1.034.2.056.319.318-.129.627-.237.919-.379a.321.321,0,0,0,.116-.249c.018-.618.018-1.238.022-1.861l-.009,0c.193,0,.391,0,.584,0Z" fill="#fff" fill-rule="evenodd"/>
      <g id="Group_229" data-name="Group 229">
        <path id="Path_2881" data-name="Path 2881" d="M581.155,735.328h0v0Z" fill="#fff"/>
        <path id="Path_2882" data-name="Path 2882" d="M584.2,727.749a5.89,5.89,0,0,0-1.148-2.6,1.882,1.882,0,0,0-3.166-.012,5.6,5.6,0,0,0-.765,1.289,9.275,9.275,0,0,0-.469,5.169,6.267,6.267,0,0,0,1.109,2.771,2.346,2.346,0,0,0,1.4.962q.013-1.733.009-3.459a.378.378,0,0,0-.129-.24c-.391-.4-.795-.786-1.19-1.178-.056-.055-.112-.115-.176-.18.06-.064.116-.125.232-.241.387.451.765.894,1.139,1.332.042-.03.085-.055.124-.086v-2.689h.709v3.935c.34-.377.627-.7.928-1.035.077.065.142.117.215.189-.352.395-.692.773-1.018,1.165a.42.42,0,0,0-.112.27c-.009.718,0,1.444,0,2.166a4.228,4.228,0,0,0,.764-.4,3.835,3.835,0,0,0,1.148-1.676A9.428,9.428,0,0,0,584.2,727.749Z" fill="#fff"/>
      </g>
      <path id="Path_2883" data-name="Path 2883" d="M573.133,733.163a2.253,2.253,0,1,0-2.419,2.69,5.368,5.368,0,0,0-.022-.606.416.416,0,0,0-.137-.27c-.2-.168-.425-.306-.649-.469.06-.082.108-.154.163-.232.2.137.392.267.623.429v-1.366h.606v2.518c.056-.013.112-.035.173-.047A2.281,2.281,0,0,0,573.133,733.163Z" fill="#fff"/>
    </g>
  </g>
</svg>
