<svg xmlns="http://www.w3.org/2000/svg" width="32.42" height="32.411" viewBox="0 0 32.42 32.411">
  <g id="Shopping" transform="translate(-201.553 -721.037)">
    <path id="Path_2874" data-name="Path 2874" d="M233.973,737.245a16.21,16.21,0,1,1-16.212-16.208A16.217,16.217,0,0,1,233.973,737.245Z" fill="#794515" fill-rule="evenodd"/>
    <g id="Group_227" data-name="Group 227">
      <path id="Path_2875" data-name="Path 2875" d="M226.836,730.478H212.819c-.112,0-.161-.022-.18-.129-.2-.7-.421-1.414-.641-2.111a.805.805,0,0,0-.829-.643c-.825-.009-1.667-.009-2.49,0a.816.816,0,0,0-.853.82.826.826,0,0,0,.873.829c.571,0,1.138,0,1.714,0,.122,0,.168.039.219.168.428,1.443.855,2.875,1.289,4.326.58,1.939,1.147,3.885,1.721,5.832a.394.394,0,0,1-.024.249c-.1.288-.232.568-.32.864a1.607,1.607,0,0,0,.685,1.9,2.836,2.836,0,0,0,1.608.352c.718-.038,1.456-.133,2.191-.185,1.989-.141,3.953-.258,5.934-.4v.043c.529,0,1.061,0,1.577.017a.676.676,0,0,0,.692-.855.664.664,0,0,0-.709-.455c-1.139,0-2.291.016-3.429.059-1.055.048-2.1.134-3.145.206-.843.065-1.693.134-2.538.194a5.62,5.62,0,0,1-1.11.013c-.527-.043-.624-.241-.434-.73,0-.022,0-.031.008-.035a.462.462,0,0,1,.112-.094c.5-.061.984-.121,1.485-.177,1.164-.145,2.348-.288,3.519-.433,1.074-.117,2.159-.249,3.229-.378.842-.1,1.7-.207,2.556-.31a.815.815,0,0,0,.761-.735c.3-1.6.623-3.166.928-4.744.155-.828.335-1.654.468-2.475A.826.826,0,0,0,226.836,730.478Zm-9.552,8.258c-.419.047-.829.1-1.229.151-.239.025-.49.055-.724.082-.071.021-.123.021-.162-.07-.305-1.086-.642-2.17-.945-3.244v-.043h3.06Zm0-3.935c-.063,0-.108.016-.151.016h-3c-.116,0-.18-.021-.219-.159-.224-.764-.454-1.533-.688-2.3a.425.425,0,0,0-.06-.21h4.117Zm.8-2.648h3.4V734.8h-3.4Zm3.214,6.1c-1.044.112-2.092.25-3.158.375h-.056v-3.008H221.5v.3c0,.7-.015,1.4,0,2.1C221.5,738.174,221.456,738.229,221.3,738.25Zm3.747-1.843c-.084.426-.155.847-.252,1.273-.01.107-.053.15-.163.172-.743.086-1.471.171-2.2.261a.538.538,0,0,1-.15.013v-2.514h2.913C225.147,735.892,225.1,736.149,225.044,736.407Zm.541-2.784c-.073.353-.146.731-.223,1.087-.013.047-.069.107-.112.107h-2.93c-.007,0-.007-.016-.039-.016v-2.648h3.6C225.774,732.656,225.671,733.146,225.585,733.623Z" fill="#fff" fill-rule="evenodd"/>
      <path id="Path_2876" data-name="Path 2876" d="M214.484,743.579a1.656,1.656,0,1,0,1.7,1.581A1.653,1.653,0,0,0,214.484,743.579Z" fill="#fff" fill-rule="evenodd"/>
      <path id="Path_2877" data-name="Path 2877" d="M223.987,743.579a1.655,1.655,0,1,0,1.654,1.663A1.659,1.659,0,0,0,223.987,743.579Z" fill="#fff" fill-rule="evenodd"/>
    </g>
  </g>
</svg>
