<svg xmlns="http://www.w3.org/2000/svg" width="22.093" height="22.202" viewBox="0 0 22.093 22.202">
  <g id="icon_whatsapp" data-name="icon whatsapp" transform="translate(-1783.315 -178.37)">
    <path id="Path_18" data-name="Path 18" d="M1794.178,178.37a11.123,11.123,0,0,1,8.223,3.488,10.563,10.563,0,0,1,2.834,5.629,10.985,10.985,0,0,1-15.551,11.843,1.033,1.033,0,0,0-.772-.058c-1.619.432-3.243.852-4.865,1.273a.537.537,0,0,1-.7-.7c.446-1.651.9-3.3,1.339-4.954a.6.6,0,0,0-.042-.4,11.123,11.123,0,0,1-1.158-3.616,10.969,10.969,0,0,1,3.9-9.962,10.482,10.482,0,0,1,5.243-2.376C1793.211,178.454,1793.807,178.409,1794.178,178.37Zm-9.61,20.938a1.691,1.691,0,0,0,.179-.019q2.163-.57,4.322-1.143a.87.87,0,0,1,.663.058,9.917,9.917,0,0,0,3.725,1.111,9.965,9.965,0,0,0,10.826-11.1,9.476,9.476,0,0,0-.687-2.65,10.007,10.007,0,0,0-11.213-5.93,9.441,9.441,0,0,0-3.8,1.669,10,10,0,0,0-3.964,10.058,9.735,9.735,0,0,0,1.069,2.9.786.786,0,0,1,.083.631c-.273.969-.538,1.942-.8,2.914C1784.84,198.295,1784.708,198.783,1784.568,199.308Z" fill="#fff" fill-rule="evenodd"/>
    <path id="Path_19" data-name="Path 19" d="M1792.343,188.672a6.451,6.451,0,0,0,3.11,2.752.215.215,0,0,0,.3-.076c.2-.254.4-.51.6-.759a.926.926,0,0,1,1.245-.317c.552.236,1.087.513,1.628.772.092.043.184.091.278.13.6.257.75.447.717,1.1a2.491,2.491,0,0,1-1.139,2.107,3.545,3.545,0,0,1-3.005.433,10.051,10.051,0,0,1-4.588-2.632,13.9,13.9,0,0,1-2.361-3,3.831,3.831,0,0,1-.331-3.454,2.92,2.92,0,0,1,1.222-1.52,1.968,1.968,0,0,1,1.588-.084.98.98,0,0,1,.527.48c.347.752.655,1.525.962,2.3a1.054,1.054,0,0,1-.191,1.032C1792.732,188.184,1792.538,188.421,1792.343,188.672Zm4.847,2.543c-.3.366-.575.724-.876,1.059a.789.789,0,0,1-.991.222c-.375-.175-.758-.337-1.122-.538a7.335,7.335,0,0,1-2.788-2.807.877.877,0,0,1,.138-1.182c.134-.144.259-.294.384-.446a.5.5,0,0,0,.074-.584c-.229-.5-.435-1.011-.64-1.523-.069-.175-.112-.361-.365-.32-.189.03-.431-.012-.557.092a2.277,2.277,0,0,0-.8,2.4,5.678,5.678,0,0,0,1.074,2.117,10.149,10.149,0,0,0,4.812,3.836,3.565,3.565,0,0,0,2.085.327c.856-.217,1.463-.571,1.558-1.5.008-.073-.027-.2-.08-.223C1798.465,191.823,1797.823,191.519,1797.19,191.215Z" fill="#fff" fill-rule="evenodd"/>
  </g>
</svg>
