<svg xmlns="http://www.w3.org/2000/svg" width="22.092" height="22.11" viewBox="0 0 22.092 22.11">
  <g id="icon_facebook" data-name="icon facebook" transform="translate(-1746.38 -178.416)">
    <path id="Path_16" data-name="Path 16" d="M1757.441,178.416a11.055,11.055,0,1,0,11.03,10.86A11.035,11.035,0,0,0,1757.441,178.416Zm.061,21.217a10.163,10.163,0,1,1,10.016-10.147A10.176,10.176,0,0,1,1757.5,199.633Z" fill="#fff" fill-rule="evenodd"/>
    <path id="Path_17" data-name="Path 17" d="M1758.889,186.777c-.117,0-.224.007-.223-.162.005-.5-.015-1.009.009-1.513a.73.73,0,0,1,.73-.751,7.07,7.07,0,0,1,.756-.02c.392,0,.783,0,1.182,0v-2.7a.754.754,0,0,0-.124-.019c-1.136.021-2.274.012-3.405.078a2.652,2.652,0,0,0-2.482,1.708,3.8,3.8,0,0,0-.214,1.2c-.033.637-.011,1.277-.005,1.915,0,.2-.077.289-.278.285-.371-.007-.742-.006-1.111,0-.1,0-.2.015-.3.022v2.629h1.693v7.8h3.548v-7.824h2.393c.112-.887.218-1.749.328-2.641h-2.495Z" fill="#fff" fill-rule="evenodd"/>
  </g>
</svg>
