<svg xmlns="http://www.w3.org/2000/svg" width="22.092" height="22.11" viewBox="0 0 22.092 22.11">
  <g id="icon_youtube" data-name="icon youtube" transform="translate(-1820.25 -178.416)">
    <path id="Path_20" data-name="Path 20" d="M1831.31,178.416a11.055,11.055,0,1,0,11.031,10.86A11.036,11.036,0,0,0,1831.31,178.416Zm.062,21.217a10.163,10.163,0,1,1,10.017-10.147A10.178,10.178,0,0,1,1831.372,199.633Z" fill="#fff"/>
    <path id="Path_21" data-name="Path 21" d="M1837.43,186.61a1.592,1.592,0,0,0-1.51-1.362,35.378,35.378,0,0,0-4.509-.193c-1.355.013-2.71.072-4.063.12a5.623,5.623,0,0,0-.741.085,1.6,1.6,0,0,0-1.4,1.438c-.077.508-.11,1.026-.163,1.54-.014.114-.028.23-.041.344v1.772c.026.317.048.634.082.952s.067.665.13.991a1.59,1.59,0,0,0,1.53,1.387c.886.079,1.777.117,2.665.173.1.006.206.022.309.034h3.261c.1-.012.207-.028.31-.034.881-.056,1.765-.089,2.643-.172a1.563,1.563,0,0,0,1.511-1.422,8.939,8.939,0,0,0,.127-1.346q.027-1.532,0-3.065A6.928,6.928,0,0,0,1837.43,186.61Zm-7.349,4.756v-3.794c1.1.633,2.185,1.257,3.3,1.9C1832.266,190.108,1831.186,190.73,1830.081,191.366Z" fill="#fff"/>
  </g>
</svg>
