<svg xmlns="http://www.w3.org/2000/svg" width="163.267" height="87.768" viewBox="0 0 163.267 87.768">
  <g id="Group_2" data-name="Group 2" transform="translate(-124.848 -118.727)">
    <g id="Group_1" data-name="Group 1">
      <path id="Path_1" data-name="Path 1" d="M137.985,120.942a7.609,7.609,0,0,0-2.449-1.632,8.005,8.005,0,0,0-6,0,7.471,7.471,0,0,0-2.443,1.626,7.6,7.6,0,0,0-1.65,2.5,8.391,8.391,0,0,0-.6,3.189v3.987a12.737,12.737,0,0,0,.794,4.488,27.334,27.334,0,0,0,1.95,4.1c.769,1.326,1.62,2.643,2.531,3.924s1.754,2.573,2.517,3.876a25.768,25.768,0,0,1,1.923,4.008,12.1,12.1,0,0,1,.775,4.295v7.049a2.817,2.817,0,0,1-4.792,1.985,2.682,2.682,0,0,1-.807-1.99V155.13h-4.891v4.149a8.382,8.382,0,0,0,.6,3.188,7.39,7.39,0,0,0,1.65,2.493,7.786,7.786,0,0,0,10.89.021,7.384,7.384,0,0,0,1.645-2.485,8.353,8.353,0,0,0,.6-3.189v-4.551a14.967,14.967,0,0,0-.794-4.9,25.771,25.771,0,0,0-1.952-4.311,44.728,44.728,0,0,0-2.528-3.931c-.906-1.253-1.756-2.515-2.519-3.757a25.669,25.669,0,0,1-1.923-3.793,10.6,10.6,0,0,1-.773-4.01v-6.491a2.8,2.8,0,1,1,5.6,0v7.226h4.89V126.63a8.357,8.357,0,0,0-.6-3.192A7.532,7.532,0,0,0,137.985,120.942Z" fill="#fff"/>
      <path id="Path_2" data-name="Path 2" d="M164.4,139.344a9.692,9.692,0,0,0-.491-3.137,7.146,7.146,0,0,0-1.433-2.476,6.378,6.378,0,0,0-2.31-1.606,8.12,8.12,0,0,0-3.115-.57,7.6,7.6,0,0,0-2.269.337,8.855,8.855,0,0,0-1.977.884,9.7,9.7,0,0,0-1.622,1.247,8.758,8.758,0,0,0-1.22,1.42l-.089.132,1.385,1.1.1-.12a10.867,10.867,0,0,1,.83-.859,6.615,6.615,0,0,1,.986-.765,6.12,6.12,0,0,1,1.135-.552,3.775,3.775,0,0,1,1.312-.219,4.548,4.548,0,0,1,2.024.4,3.612,3.612,0,0,1,1.3,1.031,4.069,4.069,0,0,1,.7,1.451,6.747,6.747,0,0,1,.209,1.626v3.145a6.572,6.572,0,0,0-2.805-.582,7.133,7.133,0,0,0-5.2,2.173,7.5,7.5,0,0,0-1.577,2.478,8.607,8.607,0,0,0-.565,3.151v10.272a8.591,8.591,0,0,0,.565,3.145,7.276,7.276,0,0,0,1.577,2.455,7.205,7.205,0,0,0,5.2,2.159,6.713,6.713,0,0,0,2.428-.433,6.4,6.4,0,0,0,1.791-1.053l.349.83h5.631v-1.5H164.4Zm-7.349,25.682a2.754,2.754,0,0,1-2.8-2.785V146.066a2.764,2.764,0,0,1,2.8-2.794,2.763,2.763,0,0,1,2.805,2.794v16.175a2.671,2.671,0,0,1-.81,1.983A2.72,2.72,0,0,1,157.049,165.026Z" fill="#fff"/>
      <path id="Path_3" data-name="Path 3" d="M190.739,132.239h-7.06v1.468h2.511v28.534a2.665,2.665,0,0,1-.809,1.983,2.709,2.709,0,0,1-1.991.8,2.748,2.748,0,0,1-2.8-2.785v-30h-7.4v1.468h2.849v25.6a8.51,8.51,0,0,0,.572,3.145,7.135,7.135,0,0,0,1.574,2.455,7.277,7.277,0,0,0,2.329,1.589,7.352,7.352,0,0,0,2.875.57,7.11,7.11,0,0,0,2.4-.4,7.76,7.76,0,0,0,1.868-.962l.3.705h5.629v-1.5h-2.846Z" fill="#fff"/>
      <path id="Path_4" data-name="Path 4" d="M233.094,139.344a9.532,9.532,0,0,0-.5-3.137,6.968,6.968,0,0,0-1.428-2.476,6.361,6.361,0,0,0-2.31-1.606,8.1,8.1,0,0,0-3.112-.57,7.574,7.574,0,0,0-2.269.337,8.664,8.664,0,0,0-1.978.884,9.382,9.382,0,0,0-1.622,1.247,8.808,8.808,0,0,0-1.22,1.42l-.088.132,1.383,1.1.1-.12a10.62,10.62,0,0,1,.827-.859,7.172,7.172,0,0,1,.986-.765,6.209,6.209,0,0,1,1.138-.552,3.777,3.777,0,0,1,1.311-.219,4.538,4.538,0,0,1,2.023.4,3.57,3.57,0,0,1,1.3,1.031,4.075,4.075,0,0,1,.7,1.451,6.5,6.5,0,0,1,.2,1.626v3.145a6.531,6.531,0,0,0-2.8-.582,7.129,7.129,0,0,0-5.206,2.173,7.478,7.478,0,0,0-1.575,2.478,8.607,8.607,0,0,0-.565,3.151v10.272a8.591,8.591,0,0,0,.565,3.145,7.193,7.193,0,0,0,6.781,4.614,6.7,6.7,0,0,0,2.426-.433,6.515,6.515,0,0,0,1.791-1.053l.35.83h5.631v-1.5h-2.851Zm-7.347,25.682a2.751,2.751,0,0,1-2.8-2.785V146.066a2.7,2.7,0,0,1,.809-1.986,2.667,2.667,0,0,1,1.991-.808,2.747,2.747,0,0,1,2.8,2.794v16.175a2.678,2.678,0,0,1-.8,1.983A2.733,2.733,0,0,1,225.747,165.026Z" fill="#fff"/>
      <path id="Path_5" data-name="Path 5" d="M259.547,139.354a8.691,8.691,0,0,0-.562-3.15,7.513,7.513,0,0,0-1.579-2.474,7.22,7.22,0,0,0-5.209-2.175,6.719,6.719,0,0,0-2.422.427,6.134,6.134,0,0,0-1.8,1.06l-.346-.8H242v1.468h2.855v31.235H242v1.468h9.227v-1.468H249.4V136.394a2.7,2.7,0,0,1,.809-1.988,2.868,2.868,0,0,1,3.987,0,2.7,2.7,0,0,1,.8,1.988v28.548h-1.82v1.468H262.4v-1.468h-2.849Z" fill="#fff"/>
      <path id="Path_6" data-name="Path 6" d="M285.258,164.913V139.344a9.506,9.506,0,0,0-.493-3.137,7.1,7.1,0,0,0-1.428-2.476,6.356,6.356,0,0,0-2.311-1.606,8.126,8.126,0,0,0-3.116-.57,7.624,7.624,0,0,0-2.273.337,9.021,9.021,0,0,0-1.977.884,9.881,9.881,0,0,0-1.626,1.247,9.244,9.244,0,0,0-1.215,1.42l-.086.132,1.385,1.1.1-.12a10.756,10.756,0,0,1,.833-.859,6.417,6.417,0,0,1,.98-.765,6.1,6.1,0,0,1,1.139-.552,3.76,3.76,0,0,1,1.313-.219,4.547,4.547,0,0,1,2.025.4,3.571,3.571,0,0,1,1.29,1.032,3.957,3.957,0,0,1,.7,1.45,6.693,6.693,0,0,1,.206,1.626v3.145a6.557,6.557,0,0,0-2.8-.582,7.314,7.314,0,0,0-2.871.569,7.207,7.207,0,0,0-2.337,1.6,7.49,7.49,0,0,0-1.573,2.478,8.682,8.682,0,0,0-.563,3.151v10.272a8.669,8.669,0,0,0,.563,3.145,7.2,7.2,0,0,0,6.781,4.614,6.709,6.709,0,0,0,2.428-.433,6.333,6.333,0,0,0,1.783-1.053l.355.83h5.639v-1.5Zm-7.348.113a2.75,2.75,0,0,1-2.8-2.785V146.066a2.76,2.76,0,0,1,2.8-2.794,2.753,2.753,0,0,1,2.8,2.794v16.175a2.678,2.678,0,0,1-.8,1.983A2.736,2.736,0,0,1,277.91,165.026Z" fill="#fff"/>
    </g>
    <path id="Path_7" data-name="Path 7" d="M156,173.154h2.852v31.221H156v1.467h10.589v-1.467h-2.852V173.154h2.852v-1.465H156Z" fill="#fff"/>
    <path id="Path_8" data-name="Path 8" d="M190.752,178.794a8.547,8.547,0,0,0-.563-3.145,7.37,7.37,0,0,0-1.577-2.467,7.065,7.065,0,0,0-2.346-1.607,7.333,7.333,0,0,0-2.858-.564,6.733,6.733,0,0,0-2.425.424,6.014,6.014,0,0,0-1.787,1.058l-.355-.8h-5.63v1.468h2.852v31.216h-2.852v1.468h9.221v-1.468h-1.824V175.84a2.73,2.73,0,0,1,.807-1.992,2.8,2.8,0,0,1,4.793,1.992v28.534h-1.825v1.468h9.22v-1.468h-2.851Z" fill="#fff"/>
    <path id="Path_9" data-name="Path 9" d="M207.384,156.569v-24.33h-7.4v1.468h2.851v31.108c0,6.839-5.145,6.852-5.145,6.852v1.461C203.967,172.754,207.147,167.327,207.384,156.569Z" fill="#fff"/>
    <path id="Path_10" data-name="Path 10" d="M207.384,164.735q-1.9,7.43-7.33,8.988h2.914V203.4a2.451,2.451,0,0,0,2.445,2.443h6.665v-2.035h-3.717a.938.938,0,0,1-.7-.281.92.92,0,0,1-.28-.692V173.723h4.694V171.69h-4.694Z" fill="#fff"/>
    <path id="Path_11" data-name="Path 11" d="M235.167,178.79a9.564,9.564,0,0,0-.5-3.135,7.128,7.128,0,0,0-1.428-2.473,6.4,6.4,0,0,0-2.311-1.607,8.2,8.2,0,0,0-3.115-.564,7.707,7.707,0,0,0-2.273.333,8.8,8.8,0,0,0-1.977.883,10.168,10.168,0,0,0-1.62,1.244,9.145,9.145,0,0,0-1.22,1.422l-.085.126,1.381,1.1.1-.118c.239-.274.517-.56.828-.857a6.531,6.531,0,0,1,.989-.762,6.139,6.139,0,0,1,1.134-.553,3.787,3.787,0,0,1,1.312-.217,4.571,4.571,0,0,1,2.026.4,3.613,3.613,0,0,1,1.295,1.029,3.994,3.994,0,0,1,.7,1.45,6.546,6.546,0,0,1,.209,1.622v3.147a6.567,6.567,0,0,0-2.8-.577,7.131,7.131,0,0,0-5.2,2.164,7.564,7.564,0,0,0-1.574,2.473,8.543,8.543,0,0,0-.569,3.142v10.28a8.553,8.553,0,0,0,.569,3.143,7.129,7.129,0,0,0,3.908,4.045,7.224,7.224,0,0,0,2.871.566,6.733,6.733,0,0,0,2.429-.429,6.385,6.385,0,0,0,1.781-1.05l.356.826h5.63v-1.495h-2.847Zm-4.547,22.882a2.646,2.646,0,0,1-.81,1.983,2.712,2.712,0,0,1-1.992.805,2.763,2.763,0,0,1-2.8-2.788V185.5a2.8,2.8,0,1,1,5.6,0Z" fill="#fff"/>
    <path id="Path_12" data-name="Path 12" d="M261.619,204.374v-25.58a8.556,8.556,0,0,0-.568-3.145,7.383,7.383,0,0,0-1.576-2.467,7.11,7.11,0,0,0-2.347-1.607,7.349,7.349,0,0,0-2.859-.564,6.772,6.772,0,0,0-2.425.424,6.226,6.226,0,0,0-1.793,1.058l-.344-.8H244.07v1.468h2.855v31.216H244.07v1.468H253.3v-1.468h-1.822V175.84a2.8,2.8,0,1,1,5.6,0v28.534h-1.823v1.468h9.222v-1.468Z" fill="#fff"/>
  </g>
</svg>
