<svg id="menu" xmlns="http://www.w3.org/2000/svg" width="22" height="15.423" viewBox="0 0 22 15.423">
  <path id="Path_2921" data-name="Path 2921" d="M0,46.01a4.909,4.909,0,0,1,.381-.71.915.915,0,0,1,.785-.331h.988q9.233,0,18.465-.008A1.27,1.27,0,0,1,22,46.013v.5c-.024.067-.051.134-.075.2a1.117,1.117,0,0,1-.878.82,1.775,1.775,0,0,1-.235.016H1.188A1.2,1.2,0,0,1,0,46.5Q0,46.262,0,46.01Z" transform="translate(0 -38.537)" fill="#fff"/>
  <path id="Path_2922" data-name="Path 2922" d="M46.979,16.492a1.45,1.45,0,0,1-1.17,1.029,2.258,2.258,0,0,1-.4.031H26.54a1.455,1.455,0,0,1-1.525-1.027,1.217,1.217,0,0,1,.794-1.42,2.315,2.315,0,0,1,.8-.129q6.092-.016,12.175-.008c2.108,0,4.219.023,6.328-.01a1.706,1.706,0,0,1,1.859,1.027Z" transform="translate(-24.979 -14.941)" fill="#fff"/>
  <path id="Path_2923" data-name="Path 2923" d="M67.032,76.557a3.155,3.155,0,0,1-.344.442A2.353,2.353,0,0,1,65,77.573h-17.9c-1.1.028-2.031-.527-2.073-1.239s.816-1.311,1.919-1.339c.653-.01,1.3,0,1.954,0h15.67a2.279,2.279,0,0,1,2.451,1.06Q67.032,76.3,67.032,76.557Z" transform="translate(-45.032 -62.151)" fill="#fff"/>
</svg>
