<svg xmlns="http://www.w3.org/2000/svg" width="31.595" height="31.62" viewBox="0 0 31.595 31.62">
  <g id="icon_youtube" data-name="icon youtube" transform="translate(-1564.313 -1184.94)">
    <path id="Path_2919" data-name="Path 2919" d="M1580.13,1184.94a15.81,15.81,0,1,0,15.776,15.531A15.782,15.782,0,0,0,1580.13,1184.94Zm.088,30.344a14.536,14.536,0,1,1,14.326-14.513A14.556,14.556,0,0,1,1580.218,1215.284Z" fill="#794515"/>
    <path id="Path_2920" data-name="Path 2920" d="M1588.881,1196.657a2.272,2.272,0,0,0-2.158-1.946,50.129,50.129,0,0,0-6.45-.276c-1.937.018-3.874.1-5.81.17a7.679,7.679,0,0,0-1.058.124,2.3,2.3,0,0,0-2,2.054c-.11.729-.158,1.469-.233,2.2-.02.165-.04.33-.058.494v2.532c.037.455.068.91.117,1.363.054.475.1.95.186,1.416a2.273,2.273,0,0,0,2.188,1.984c1.267.116,2.542.167,3.811.248.148.01.3.032.442.048h4.665c.148-.016.3-.038.444-.048,1.26-.08,2.522-.128,3.779-.246a2.235,2.235,0,0,0,2.161-2.033,12.713,12.713,0,0,0,.181-1.924q.039-2.193,0-4.384A9.782,9.782,0,0,0,1588.881,1196.657Zm-10.51,6.8v-5.425c1.578.906,3.126,1.8,4.718,2.713Z" fill="#794515"/>
  </g>
</svg>
