<svg xmlns="http://www.w3.org/2000/svg" width="31.595" height="31.62" viewBox="0 0 31.595 31.62">
  <g id="icon_facebook" data-name="icon facebook" transform="translate(-1465.814 -1184.94)">
    <path id="Path_2915" data-name="Path 2915" d="M1481.633,1184.94a15.81,15.81,0,1,0,15.774,15.531A15.784,15.784,0,0,0,1481.633,1184.94Zm.088,30.344a14.536,14.536,0,1,1,14.324-14.513A14.556,14.556,0,0,1,1481.721,1215.284Z" fill="#794515" fill-rule="evenodd"/>
    <path id="Path_2916" data-name="Path 2916" d="M1483.7,1196.9c-.166,0-.319.008-.318-.23.007-.723-.021-1.445.013-2.165a1.047,1.047,0,0,1,1.045-1.077c.359-.04.722-.024,1.08-.028.561,0,1.121,0,1.691,0v-3.865a1.079,1.079,0,0,0-.178-.028c-1.625.03-3.252.017-4.87.112a3.8,3.8,0,0,0-3.55,2.443,5.38,5.38,0,0,0-.3,1.712c-.047.913-.016,1.827-.006,2.74,0,.289-.111.413-.4.408-.531-.011-1.062-.009-1.59-.007-.143,0-.287.022-.431.032v3.76h2.422v11.158h5.073v-11.188h3.423c.16-1.268.312-2.5.469-3.777h-.421C1485.8,1196.9,1484.753,1196.9,1483.7,1196.9Z" fill="#794515" fill-rule="evenodd"/>
  </g>
</svg>
