<svg xmlns="http://www.w3.org/2000/svg" width="31.597" height="31.754" viewBox="0 0 31.597 31.754">
  <g id="icon_whatsapp" data-name="icon whatsapp" transform="translate(-1515.063 -1184.873)">
    <path id="Path_2917" data-name="Path 2917" d="M1530.6,1184.873a15.918,15.918,0,0,1,11.761,4.99,15.122,15.122,0,0,1,4.054,8.05,15.714,15.714,0,0,1-22.244,16.939,1.457,1.457,0,0,0-1.1-.084c-2.316.617-4.639,1.218-6.96,1.82a.767.767,0,0,1-1.005-1c.636-2.362,1.286-4.72,1.913-7.084a.852.852,0,0,0-.059-.573,15.859,15.859,0,0,1-1.655-5.169,15.676,15.676,0,0,1,5.574-14.248,15.02,15.02,0,0,1,7.5-3.4C1529.217,1184.992,1530.067,1184.93,1530.6,1184.873Zm-13.744,29.945a1.933,1.933,0,0,0,.256-.027q3.093-.812,6.183-1.633a1.238,1.238,0,0,1,.946.082,14.235,14.235,0,0,0,11.192.91,14.25,14.25,0,0,0,9.62-15.193,13.569,13.569,0,0,0-.984-3.789,14.3,14.3,0,0,0-16.036-8.482,13.487,13.487,0,0,0-5.428,2.386,14.3,14.3,0,0,0-5.669,14.385,13.932,13.932,0,0,0,1.53,4.147,1.129,1.129,0,0,1,.118.9c-.391,1.386-.768,2.776-1.148,4.167C1517.243,1213.371,1517.056,1214.069,1516.855,1214.818Z" fill="#794515" fill-rule="evenodd"/>
    <path id="Path_2918" data-name="Path 2918" d="M1527.975,1199.607a9.218,9.218,0,0,0,4.448,3.936.308.308,0,0,0,.431-.108c.283-.365.568-.73.863-1.085a1.32,1.32,0,0,1,1.778-.454c.791.337,1.555.735,2.329,1.1.132.064.265.129.4.185.864.368,1.073.641,1.025,1.577a3.56,3.56,0,0,1-1.628,3.013,5.055,5.055,0,0,1-4.3.62,14.408,14.408,0,0,1-6.562-3.762,19.964,19.964,0,0,1-3.377-4.3,5.487,5.487,0,0,1-.474-4.939,4.186,4.186,0,0,1,1.749-2.174,2.812,2.812,0,0,1,2.271-.12,1.4,1.4,0,0,1,.754.686c.5,1.076.937,2.182,1.375,3.285a1.5,1.5,0,0,1-.273,1.477C1528.532,1198.909,1528.253,1199.247,1527.975,1199.607Zm6.932,3.639c-.428.522-.822,1.034-1.254,1.512a1.129,1.129,0,0,1-1.417.32c-.535-.252-1.085-.483-1.6-.769a10.51,10.51,0,0,1-3.988-4.014,1.257,1.257,0,0,1,.2-1.693c.191-.207.372-.42.55-.637a.719.719,0,0,0,.1-.836c-.327-.715-.621-1.445-.914-2.178-.1-.251-.161-.516-.523-.458-.269.043-.617-.015-.8.134a3.254,3.254,0,0,0-1.14,3.431,8.131,8.131,0,0,0,1.535,3.026,14.539,14.539,0,0,0,6.883,5.488,5.1,5.1,0,0,0,2.981.464c1.224-.309,2.093-.815,2.229-2.147.012-.106-.038-.284-.114-.321C1536.731,1204.113,1535.813,1203.68,1534.907,1203.246Z" fill="#794515" fill-rule="evenodd"/>
  </g>
</svg>
