<svg xmlns="http://www.w3.org/2000/svg" width="74.359" height="96.585" viewBox="0 0 74.359 96.585">
  <g id="icon" transform="translate(-283.907 -2261.845)">
    <path id="Path_89" data-name="Path 89" d="M348.538,2330.767c-1.092-5.772-3.944-10.391-9.718-12.691-2.246-.893-4.451-1.887-6.685-2.813-1.794-.745-2.277-.589-3.1,1.207-.8,1.739-1.473,3.533-2.222,5.293-.53,1.246-1.088,2.479-1.7,3.857-1.492-1.9-2.813-3.578-4.252-5.406-1.5,1.909-2.842,3.61-4.266,5.422-.35-.795-.6-1.357-.846-1.926-1.006-2.384-1.979-4.783-3.039-7.138-.939-2.072-1.126-2.123-3.148-1.291-1.974.815-3.907,1.741-5.911,2.48-6.424,2.362-9.6,7.35-10.564,13.731-.655,4.3-1.43,3.832,3.192,5.273,5.857,1.82,11.937,2.277,18.021,2.552,10.173.461,20.332.286,30.238-2.3C349.54,2335.708,349.593,2336.378,348.538,2330.767Zm-37.619-11.685c-3.241,1.539-6.532,2.988-9.8,4.459a.545.545,0,0,1-.169.013c-.21.21-.418.418-.628.626a4.614,4.614,0,0,1-.46-1.442,1.618,1.618,0,0,1,.563-1.255c3.138-1.5,6.308-2.941,9.508-4.306.32-.133,1.081.269,1.321.629A1.344,1.344,0,0,1,310.919,2319.082Zm29.35,4.337c-3.112-1.295-6.179-2.708-9.206-4.188-.365-.178-.418-.994-.613-1.51.53-.175,1.188-.644,1.576-.48,3.1,1.315,6.163,2.737,9.217,4.175.354.165.574.621,1.232,1.366C341.5,2323.085,340.738,2323.614,340.269,2323.419Z" fill="#794515" fill-rule="evenodd"/>
    <path id="Path_90" data-name="Path 90" d="M320.915,2288.052a3.33,3.33,0,0,0,3.22-3.233,3.4,3.4,0,0,0-3.267-3.221,3.224,3.224,0,0,0-3.156,3.267A3.182,3.182,0,0,0,320.915,2288.052Z" fill="#794515" fill-rule="evenodd"/>
    <path id="Path_91" data-name="Path 91" d="M321.538,2358.43a1.543,1.543,0,0,1-.654-.137,166.064,166.064,0,0,1-20.862-11.2,46.3,46.3,0,0,1-10.1-8.484,21.82,21.82,0,0,1-5.426-12.8c-.356-4.478-.467-8.881-.52-12.217-.1-5.362-.069-10.708-.043-15.878.018-4.413.064-8.828.108-13.243l.06-6.946.81.041c14.785.741,26.659-4.175,36.133-15.051l.586-.672.579.674a42.818,42.818,0,0,0,15.821,11.612,43.492,43.492,0,0,0,19.4,3.435l.813-.042-.009,13.114c-.007,9.846-.019,19.689.037,29.53a23.076,23.076,0,0,1-3.669,12.725,46.249,46.249,0,0,1-9.028,10.263,106.338,106.338,0,0,1-23.264,15.1A1.77,1.77,0,0,1,321.538,2358.43Zm-35.9-79.281-.054,5.339c-.045,4.412-.091,8.825-.109,13.234-.026,5.162-.055,10.5.042,15.845.055,3.315.163,7.688.513,12.123a20.326,20.326,0,0,0,5.059,11.915,44.789,44.789,0,0,0,9.781,8.2,164.68,164.68,0,0,0,20.663,11.09l0-.009a.261.261,0,0,0,.1-.015,104.746,104.746,0,0,0,22.919-14.879,44.932,44.932,0,0,0,8.736-9.917,21.574,21.574,0,0,0,3.433-11.9c-.057-9.844-.045-19.692-.037-29.541l.01-11.49a45.131,45.131,0,0,1-19.266-3.592,44.206,44.206,0,0,1-15.805-11.363C312.2,2274.651,300.064,2279.67,285.641,2279.149Z" fill="#794515"/>
    <path id="Path_92" data-name="Path 92" d="M335.906,2294.167l-.807-.388a31.115,31.115,0,0,0-28.376-.022l-.694.334-.339-.688a5.246,5.246,0,0,1,.622-5.537,16.727,16.727,0,0,1,10.855-7.035c6.185-1.348,11.919.436,16.893,5.254,2.251,2.174,2.94,4.538,2.112,7.224Zm-14.788-12.228a17,17,0,0,0-3.624.4,15.218,15.218,0,0,0-9.889,6.379,3.969,3.969,0,0,0-.8,3.287,32.466,32.466,0,0,1,28.091-.03,5.287,5.287,0,0,0-1.915-4.782C329.38,2283.707,325.391,2281.939,321.118,2281.939Z" fill="#794515"/>
    <path id="Path_93" data-name="Path 93" d="M307.046,2293.912a30.6,30.6,0,0,1,27.666-.012C325.411,2298.317,316.348,2298.289,307.046,2293.912Z" fill="#794515" fill-rule="evenodd"/>
    <path id="Path_94" data-name="Path 94" d="M320.862,2319.133c-3.909,0-7.5-2.436-9.616-6.517-.844-1.625-1.782-3.262-2.8-4.866a10.461,10.461,0,0,1-1.659-7.456,12.94,12.94,0,0,1,.933-2.837c.169-.4.34-.814.494-1.24l.256-.705.712.238a36.856,36.856,0,0,0,11.82,2.227,34.575,34.575,0,0,0,11.626-2.281l.783-.27.216.8c.145.516.3,1.031.454,1.545a26,26,0,0,1,.96,3.861,6.46,6.46,0,0,1-.647,3.725l-.878,1.727a49.224,49.224,0,0,1-4.5,7.687A10.224,10.224,0,0,1,320.862,2319.133ZM309.4,2297.444c-.078.2-.163.407-.248.607a11.417,11.417,0,0,0-.831,2.493,8.938,8.938,0,0,0,1.443,6.383c1.031,1.641,1.994,3.313,2.855,4.977,1.84,3.561,4.926,5.683,8.246,5.683a8.724,8.724,0,0,0,6.932-3.756,48.394,48.394,0,0,0,4.347-7.45l.885-1.737a4.928,4.928,0,0,0,.486-2.8,24.187,24.187,0,0,0-.907-3.632c-.079-.265-.157-.529-.236-.8C323.661,2300.335,318.333,2300.3,309.4,2297.444Z" fill="#794515"/>
  </g>
</svg>
