<svg xmlns="http://www.w3.org/2000/svg" width="189.791" height="72.854" viewBox="0 0 189.791 72.854">
  <g id="icon" transform="translate(-1109.143 -2027.705)">
    <g id="Group_134" data-name="Group 134">
      <g id="Group_69" data-name="Group 69">
        <g id="Group_66" data-name="Group 66">
          <g id="Group_65" data-name="Group 65">
            <path id="Path_50" data-name="Path 50" d="M1189.573,2040.319h-6.1v4.3h6.1Zm-.179,4.122h-5.747v-3.948h5.747Z" fill="#794515"/>
          </g>
        </g>
        <g id="Group_68" data-name="Group 68">
          <g id="Group_67" data-name="Group 67">
            <path id="Path_51" data-name="Path 51" d="M1189.706,2044.751h-6.374v-4.562h6.374Zm-5.929-.443h5.484v-3.681h-5.484Z" fill="#794515"/>
          </g>
        </g>
      </g>
      <g id="Group_74" data-name="Group 74">
        <g id="Group_71" data-name="Group 71">
          <g id="Group_70" data-name="Group 70">
            <path id="Path_52" data-name="Path 52" d="M1189.573,2045.479h-6.1v4.3h6.1Zm-.179,4.123h-5.747v-3.942h5.747Z" fill="#794515"/>
          </g>
        </g>
        <g id="Group_73" data-name="Group 73">
          <g id="Group_72" data-name="Group 72">
            <path id="Path_53" data-name="Path 53" d="M1189.706,2049.913h-6.374v-4.562h6.374Zm-5.929-.445h5.484v-3.677h-5.484Z" fill="#794515"/>
          </g>
        </g>
      </g>
      <g id="Group_79" data-name="Group 79">
        <g id="Group_76" data-name="Group 76">
          <g id="Group_75" data-name="Group 75">
            <path id="Path_54" data-name="Path 54" d="M1136.708,2085.484H1115.6v-4.522h-1.466v17.467h1.466v-12.772h21.108v12.687h.173v-29.018h-.173Zm-21.28,12.764h-1.119v-17.117h1.119Z" fill="#794515"/>
          </g>
        </g>
        <g id="Group_78" data-name="Group 78">
          <g id="Group_77" data-name="Group 77">
            <path id="Path_55" data-name="Path 55" d="M1115.735,2098.564h-1.729v-17.739h1.729v4.524h20.838V2069.2h.445v29.277h-.445v-12.686h-20.838Z" fill="#794515"/>
          </g>
        </g>
      </g>
      <g id="Group_84" data-name="Group 84">
        <g id="Group_81" data-name="Group 81">
          <g id="Group_80" data-name="Group 80">
            <path id="Path_56" data-name="Path 56" d="M1146.394,2098.429h8.889V2072.79h-8.889Zm.175-25.463h8.543v25.282h-8.543Z" fill="#794515"/>
          </g>
        </g>
        <g id="Group_83" data-name="Group 83">
          <g id="Group_82" data-name="Group 82">
            <path id="Path_57" data-name="Path 57" d="M1155.422,2098.564h-9.164v-25.905h9.164Zm-8.722-.447h8.275V2073.1H1146.7Z" fill="#794515"/>
          </g>
        </g>
      </g>
      <g id="Group_89" data-name="Group 89">
        <g id="Group_86" data-name="Group 86">
          <g id="Group_85" data-name="Group 85">
            <path id="Path_58" data-name="Path 58" d="M1171.577,2096.937h22.9v-24.058h-22.9Zm7.6-.7V2073.58h7.694v22.656Zm14.591,0h-6.726V2073.58h6.726Zm-21.49-22.656H1179v22.656h-6.722Z" fill="#794515"/>
          </g>
        </g>
        <g id="Group_88" data-name="Group 88">
          <g id="Group_87" data-name="Group 87">
            <path id="Path_59" data-name="Path 59" d="M1194.6,2097.068h-23.158v-24.321H1194.6Zm-22.89-.263h22.626v-23.794h-22.626Zm22.19-.432h-21.753v-22.93H1193.9Zm-6.723-.272h6.457v-22.386h-6.457Zm-7.863,0h7.418v-22.386h-7.418Zm-6.9,0h6.452v-22.386h-6.452Z" fill="#794515"/>
          </g>
        </g>
      </g>
      <g id="Group_94" data-name="Group 94">
        <g id="Group_91" data-name="Group 91">
          <g id="Group_90" data-name="Group 90">
            <path id="Path_60" data-name="Path 60" d="M1203.473,2029.64v-1.8h-69.615v1.8h2.85v4.95h-7.127v34.7h73.892v-2.651h-9.919V2034.59h-56.673v-4.95Zm-73.716,7.771h6.951v20.139h-6.951Zm60.57,1.917h-7.391v-1.917h7.391Zm0,11.387h-7.391v-11.21h7.391Zm0,.178v15.742h-7.391v-15.742Zm-7.567-11.565v27.307h-5.724v-9.085h-1.144v-20.139h6.868Zm-53,27.307v-8.91h6.951v8.91Zm7.124-8.91h7.224v8.91h-7.224Zm32.936-.175h-.526v-17.52h-32.41v-.525h32.936ZM1144.28,2040.2h6.138v5.086h-6.138Zm-.175,5.086h-7.224V2040.2h7.224Zm.792,12.435h5.521v8.389H1144.9Zm11.4-11.646v11.471h-5.715v-11.471Zm-11.4,0h5.521v11.471H1144.9Zm5.688,11.646h5.715v8.389h-5.715Zm6.511,0h5.893v8.389H1157.1Zm0-.175v-11.471h5.893v11.471Zm6.071-11.471h5.334v11.471h-5.334Zm5.948-.789h-5.948V2040.2h5.948Zm-6.126,0h-6.176V2040.2h6.176Zm-6.349,0h-6.055V2040.2h6.055Zm6.527,20.824v-8.389h5.334v8.389Zm-26.286-20.651h7.224v12.087h-7.224Zm32.41,12.262h.526v8.91h-.526Zm.7,0h6.872v8.91h-6.872Zm5.728-.175h-5.728v-18.222h-33.111v-1.917h38.839Zm27.574,9.258v2.3h-73.537v-2.3H1144.1v.007H1169.2v-.007h21.3v-29.573h-60.747v-2.472h63.614v32.045Zm-69.259-38.791h69.259v1.443h-69.259Z" fill="#794515"/>
          </g>
        </g>
        <g id="Group_93" data-name="Group 93">
          <g id="Group_92" data-name="Group 92">
            <path id="Path_61" data-name="Path 61" d="M1203.6,2069.422H1129.45V2034.46h7.123v-4.69h-2.843V2027.7H1203.6v2.065h-66.587v4.69h56.668v32.04h9.919Zm-59.372-2.743,24.917-.007v-21.248h-24.917Zm38.838-.179h7.12v-15.476h-7.12Zm-5.9,0h5.462v-28.951h-6.607v19.866h1.145Zm-7.043,0h6.606v-8.636h-6.606Zm-.7,0h.256v-8.636h-.256Zm-32.41,0h6.955v-8.636h-6.955Zm-7.123,0h6.678v-8.636H1129.9Zm40.232-9.085h5.459v-19.866h-38.568v1.643h33.109Zm-.7,0h.256v-17.778h-32.666v.258h32.41Zm-32.41,0h6.955V2045.6h-6.955Zm-7.123,0h6.678v-19.866H1129.9Zm53.176-6.832h7.12v-10.946h-7.12Zm-19.77-5.427h5.68v-4.818h-5.68Zm-6.352,0h5.905v-4.818h-5.905Zm-6.224,0h5.781v-4.818h-5.781Zm-6.312,0h5.872v-4.818h-5.872Zm-7.4,0h6.955v-4.818h-6.955Zm46.053-5.964h7.12v-1.643h-7.12Zm-14.441,27.055h-11.667v-20.3h11.667Zm-5.329-.263h5.058v-8.12H1163.3Zm-6.074,0h5.627v-8.12h-5.627Zm6.074-8.569h5.058v-11.2H1163.3Zm-6.074,0h5.627v-11.2h-5.627Zm-.8,8.832h-11.668v-20.3h11.668Zm-5.705-.263h5.439v-8.12h-5.439Zm-5.695,0h5.255v-8.12h-5.255Zm5.695-8.569h5.439v-11.2h-5.439Zm-5.695,0h5.255v-11.2h-5.255Z" fill="#794515"/>
          </g>
        </g>
      </g>
      <g id="Group_95" data-name="Group 95">
        <rect id="Rectangle_21" data-name="Rectangle 21" width="0.536" height="37.175" transform="translate(1199.283 2029.46)" fill="#794515"/>
      </g>
      <g id="Group_96" data-name="Group 96">
        <rect id="Rectangle_22" data-name="Rectangle 22" width="1.62" height="29.393" transform="translate(1199.848 2069.112)" fill="#794515"/>
      </g>
      <g id="Group_97" data-name="Group 97">
        <rect id="Rectangle_23" data-name="Rectangle 23" width="1.618" height="29.393" transform="translate(1136.477 2069.112)" fill="#794515"/>
      </g>
      <g id="Group_98" data-name="Group 98">
        <rect id="Rectangle_24" data-name="Rectangle 24" width="65.059" height="1.072" transform="translate(1136.477 2098.505)" fill="#794515"/>
      </g>
      <g id="Group_103" data-name="Group 103">
        <g id="Group_100" data-name="Group 100">
          <g id="Group_99" data-name="Group 99">
            <path id="Path_62" data-name="Path 62" d="M1217.632,2044.62h6.107v-4.3h-6.107Zm.178-4.127h5.755v3.948h-5.755Z" fill="#794515"/>
          </g>
        </g>
        <g id="Group_102" data-name="Group 102">
          <g id="Group_101" data-name="Group 101">
            <path id="Path_63" data-name="Path 63" d="M1217.5,2040.189h6.375v4.562H1217.5Zm5.929.438h-5.479v3.681h5.479Z" fill="#794515"/>
          </g>
        </g>
      </g>
      <g id="Group_108" data-name="Group 108">
        <g id="Group_105" data-name="Group 105">
          <g id="Group_104" data-name="Group 104">
            <path id="Path_64" data-name="Path 64" d="M1217.632,2049.775h6.107v-4.3h-6.107Zm.178-4.115h5.755v3.942h-5.755Z" fill="#794515"/>
          </g>
        </g>
        <g id="Group_107" data-name="Group 107">
          <g id="Group_106" data-name="Group 106">
            <path id="Path_65" data-name="Path 65" d="M1217.5,2045.351h6.375v4.562H1217.5Zm5.929.44h-5.479v3.677h5.479Z" fill="#794515"/>
          </g>
        </g>
      </g>
      <g id="Group_113" data-name="Group 113">
        <g id="Group_110" data-name="Group 110">
          <g id="Group_109" data-name="Group 109">
            <path id="Path_66" data-name="Path 66" d="M1270.5,2069.326h-.167v29.018h.167v-12.687h21.12v12.772h1.461v-17.467h-1.461v4.522H1270.5Zm21.3,11.805h1.116v17.117h-1.116Z" fill="#794515"/>
          </g>
        </g>
        <g id="Group_112" data-name="Group 112">
          <g id="Group_111" data-name="Group 111">
            <path id="Path_67" data-name="Path 67" d="M1291.485,2085.789h-20.847v12.686h-.442V2069.2h.442v16.151h20.847v-4.524h1.731v17.739h-1.731Z" fill="#794515"/>
          </g>
        </g>
      </g>
      <g id="Group_118" data-name="Group 118">
        <g id="Group_115" data-name="Group 115">
          <g id="Group_114" data-name="Group 114">
            <path id="Path_68" data-name="Path 68" d="M1260.815,2072.79h-8.895v25.639h8.895Zm-.176,25.458H1252.1v-25.282h8.542Z" fill="#794515"/>
          </g>
        </g>
        <g id="Group_117" data-name="Group 117">
          <g id="Group_116" data-name="Group 116">
            <path id="Path_69" data-name="Path 69" d="M1251.789,2072.659h9.158v25.905h-9.158Zm8.723.443h-8.277v25.015h8.277Z" fill="#794515"/>
          </g>
        </g>
      </g>
      <g id="Group_123" data-name="Group 123">
        <g id="Group_120" data-name="Group 120">
          <g id="Group_119" data-name="Group 119">
            <path id="Path_70" data-name="Path 70" d="M1235.627,2072.879h-22.895v24.058h22.895Zm-15.293,23.357V2073.58h7.7v22.656Zm-6.9-22.656h6.724v22.656h-6.724Zm21.482,22.656h-6.72V2073.58h6.72Z" fill="#794515"/>
          </g>
        </g>
        <g id="Group_122" data-name="Group 122">
          <g id="Group_121" data-name="Group 121">
            <path id="Path_71" data-name="Path 71" d="M1212.6,2072.747h23.158v24.321H1212.6Zm22.894.264H1212.87V2096.8H1235.5Zm-22.191.432h21.751v22.93h-21.751Zm6.72.272h-6.456V2096.1h6.456Zm7.867,0h-7.424V2096.1h7.424Zm6.9,0h-6.447V2096.1h6.447Z" fill="#794515"/>
          </g>
        </g>
      </g>
      <g id="Group_128" data-name="Group 128">
        <g id="Group_125" data-name="Group 125">
          <g id="Group_124" data-name="Group 124">
            <path id="Path_72" data-name="Path 72" d="M1270.329,2029.64v4.95h-56.673v32.045h-9.922v2.651h73.9v-34.7H1270.5v-4.95h2.853v-1.8h-69.615v1.8Zm7.124,27.91H1270.5v-20.139h6.957Zm-60.571-20.139h7.39v1.917h-7.39Zm0,2.094h7.39v11.21h-7.39Zm7.39,11.388v15.742h-7.39v-15.742Zm.173-13.482h6.871v20.139h-1.149v9.085h-5.722v-29.224Zm46.051,29.224v-8.91h6.957v8.91Zm-.167,0H1263.1v-8.91h7.225Zm-32.939-27.13h32.939v.525h-32.413v17.52h-.526Zm25.538,5.785h-6.134V2040.2h6.134Zm.176-5.086h7.225v5.086H1263.1Zm-.791,25.91h-5.519v-8.389h5.519Zm-5.694-20.035v11.471h-5.706v-11.471Zm5.694,11.471h-5.519v-11.471h5.519Zm-5.694,8.564h-5.706v-8.389h5.706Zm-6.5,0h-5.9v-8.389h5.9Zm-5.9-8.564v-11.471h5.9v11.471Zm-.175,0h-5.334v-11.471h5.334Zm-5.95-17.346h5.95v5.086h-5.95Zm6.125,0h6.175v5.086h-6.175Zm6.35,0h6.051v5.086h-6.051Zm-11.859,25.91v-8.389h5.334v8.389Zm31.62-8.564H1263.1v-12.087h7.225Zm-32.413,9.085h-.526v-8.91h.526Zm-.7,0h-6.871v-8.91h6.871Zm-5.731-29.224h38.845v1.917h-33.114v18.222h-5.731Zm-17.654,29.4v-32.045h63.623v2.472H1216.7v29.573h21.306v.007h25.1v-.007h14.349v2.3h-73.539v-2.3Zm59.349-37.348h-69.265v-1.443h69.265Z" fill="#794515"/>
          </g>
        </g>
        <g id="Group_127" data-name="Group 127">
          <g id="Group_126" data-name="Group 126">
            <path id="Path_73" data-name="Path 73" d="M1203.6,2066.5h9.913v-32.04H1270.2v-4.69H1203.6V2027.7h69.883v2.065h-2.85v4.69h7.129v34.962H1203.6Zm59.365-21.076h-24.923v21.248l24.923.007Zm-38.831,5.6h-7.121V2066.5h7.121Zm5.9,6.391h1.142v-19.866h-6.6V2066.5h5.458Zm7.04.449h-6.6v8.636h6.6Zm.706,0h-.256v8.636h.256Zm32.414,0h-6.954v8.636h6.954Zm7.124,0h-6.682v8.636h6.682Zm-40.244-18.672h33.12v-1.643h-38.573v19.866h5.453Zm.706.7H1270.2v-.258h-32.67v17.778h.256Zm32.414,5.7h-6.954v11.819h6.954Zm7.124-8.047h-6.682v19.866h6.682Zm-53.181,2.088h-7.121v10.946h7.121Zm19.77.7h-5.682v4.818h5.682Zm6.353,0h-5.911v4.818h5.911Zm6.224,0H1250.7v4.818h5.785Zm6.308,0h-5.868v4.818h5.868Zm7.4,0h-6.954v4.818h6.954Zm-46.057-2.789h-7.121v1.643h7.121Zm14.434,8.4h11.677v20.3h-11.677Zm5.336,11.916h-5.067v8.12h5.067Zm6.07,0h-5.628v8.12h5.628Zm-6.07-11.652h-5.067v11.2h5.067Zm6.07,0h-5.628v11.2h5.628Zm.8-.264h11.677v20.3h-11.677Zm5.712,11.916h-5.438v8.12h5.438Zm5.693,0h-5.253v8.12h5.253Zm-5.693-11.652h-5.438v11.2h5.438Zm5.693,0h-5.253v11.2h5.253Z" fill="#794515"/>
          </g>
        </g>
      </g>
      <g id="Group_129" data-name="Group 129">
        <rect id="Rectangle_25" data-name="Rectangle 25" width="0.534" height="37.175" transform="translate(1207.387 2029.46)" fill="#794515"/>
      </g>
      <g id="Group_130" data-name="Group 130">
        <rect id="Rectangle_26" data-name="Rectangle 26" width="1.62" height="29.393" transform="translate(1205.74 2069.112)" fill="#794515"/>
      </g>
      <g id="Group_131" data-name="Group 131">
        <rect id="Rectangle_27" data-name="Rectangle 27" width="1.617" height="29.393" transform="translate(1269.116 2069.112)" fill="#794515"/>
      </g>
      <g id="Group_132" data-name="Group 132">
        <rect id="Rectangle_28" data-name="Rectangle 28" width="65.063" height="1.072" transform="translate(1205.67 2098.505)" fill="#794515"/>
      </g>
      <g id="Group_133" data-name="Group 133">
        <rect id="Rectangle_29" data-name="Rectangle 29" width="189.791" height="2.054" transform="translate(1109.143 2098.505)" fill="#794515"/>
      </g>
    </g>
  </g>
</svg>
