<svg xmlns="http://www.w3.org/2000/svg" width="45.919" height="87.605" viewBox="0 0 45.919 87.605">
  <g id="icon" transform="translate(-913.059 -2266.335)">
    <path id="Path_105" data-name="Path 105" d="M958.978,2277.776a11.453,11.453,0,0,0-11.44-11.441H924.5a11.45,11.45,0,0,0-11.437,11.441V2342.5A11.45,11.45,0,0,0,924.5,2353.94h23.042a11.453,11.453,0,0,0,11.44-11.438ZM956,2342.5a8.474,8.474,0,0,1-8.464,8.464H924.5a8.472,8.472,0,0,1-8.46-8.464v-64.726a8.47,8.47,0,0,1,8.46-8.462h23.042a8.472,8.472,0,0,1,8.464,8.462Z" fill="#794515"/>
    <path id="Path_106" data-name="Path 106" d="M947.538,2346.574H924.5a4.075,4.075,0,0,1-4.07-4.072v-64.726a4.076,4.076,0,0,1,4.07-4.073h23.042a4.079,4.079,0,0,1,4.076,4.073V2342.5A4.078,4.078,0,0,1,947.538,2346.574ZM924.5,2275.511a2.266,2.266,0,0,0-2.261,2.265V2342.5a2.268,2.268,0,0,0,2.261,2.267h23.042a2.266,2.266,0,0,0,2.264-2.267v-64.726a2.264,2.264,0,0,0-2.264-2.265Z" fill="#794515"/>
    <g id="Group_147" data-name="Group 147">
      <path id="Path_107" data-name="Path 107" d="M931.636,2285.639a4.043,4.043,0,1,1,4.042-4.043A4.051,4.051,0,0,1,931.636,2285.639Zm0-6.541a2.5,2.5,0,1,0,2.5,2.5A2.5,2.5,0,0,0,931.636,2279.1Z" fill="#794515"/>
      <path id="Path_108" data-name="Path 108" d="M940.406,2285.639a4.043,4.043,0,1,1,4.04-4.043A4.047,4.047,0,0,1,940.406,2285.639Zm0-6.541a2.5,2.5,0,1,0,2.494,2.5A2.5,2.5,0,0,0,940.406,2279.1Z" fill="#794515"/>
    </g>
    <g id="Group_148" data-name="Group 148">
      <path id="Path_109" data-name="Path 109" d="M931.636,2295.007a4.044,4.044,0,1,1,4.042-4.042A4.052,4.052,0,0,1,931.636,2295.007Zm0-6.542a2.5,2.5,0,1,0,2.5,2.5A2.5,2.5,0,0,0,931.636,2288.465Z" fill="#794515"/>
      <path id="Path_110" data-name="Path 110" d="M940.406,2295.007a4.044,4.044,0,1,1,4.04-4.042A4.048,4.048,0,0,1,940.406,2295.007Zm0-6.542a2.5,2.5,0,1,0,2.494,2.5A2.5,2.5,0,0,0,940.406,2288.465Z" fill="#794515"/>
    </g>
    <g id="Group_149" data-name="Group 149">
      <path id="Path_111" data-name="Path 111" d="M931.636,2304.373a4.043,4.043,0,1,1,4.042-4.04A4.049,4.049,0,0,1,931.636,2304.373Zm0-6.541a2.5,2.5,0,1,0,2.5,2.5A2.505,2.505,0,0,0,931.636,2297.832Z" fill="#794515"/>
      <path id="Path_112" data-name="Path 112" d="M940.406,2304.373a4.043,4.043,0,1,1,4.04-4.04A4.046,4.046,0,0,1,940.406,2304.373Zm0-6.541a2.5,2.5,0,1,0,2.494,2.5A2.5,2.5,0,0,0,940.406,2297.832Z" fill="#794515"/>
    </g>
    <g id="Group_150" data-name="Group 150">
      <path id="Path_113" data-name="Path 113" d="M931.636,2313.74a4.042,4.042,0,1,1,4.042-4.041A4.05,4.05,0,0,1,931.636,2313.74Zm0-6.538a2.5,2.5,0,1,0,2.5,2.5A2.5,2.5,0,0,0,931.636,2307.2Z" fill="#794515"/>
      <path id="Path_114" data-name="Path 114" d="M940.406,2313.74a4.042,4.042,0,1,1,4.04-4.041A4.046,4.046,0,0,1,940.406,2313.74Zm0-6.538a2.5,2.5,0,1,0,2.494,2.5A2.5,2.5,0,0,0,940.406,2307.2Z" fill="#794515"/>
    </g>
    <g id="Group_151" data-name="Group 151">
      <path id="Path_115" data-name="Path 115" d="M931.636,2323.108a4.042,4.042,0,1,1,4.042-4.043A4.051,4.051,0,0,1,931.636,2323.108Zm0-6.54a2.5,2.5,0,1,0,2.5,2.5A2.5,2.5,0,0,0,931.636,2316.568Z" fill="#794515"/>
      <path id="Path_116" data-name="Path 116" d="M940.406,2323.108a4.042,4.042,0,1,1,4.04-4.043A4.048,4.048,0,0,1,940.406,2323.108Zm0-6.54a2.5,2.5,0,1,0,2.494,2.5A2.5,2.5,0,0,0,940.406,2316.568Z" fill="#794515"/>
    </g>
    <path id="Path_117" data-name="Path 117" d="M936.019,2344.359a10.01,10.01,0,1,1,10.009-10.011A10.023,10.023,0,0,1,936.019,2344.359Zm0-18.476a8.465,8.465,0,1,0,8.463,8.465A8.476,8.476,0,0,0,936.019,2325.883Z" fill="#794515"/>
  </g>
</svg>
