<svg xmlns="http://www.w3.org/2000/svg" width="144.137" height="94.939" viewBox="0 0 144.137 94.939">
  <g id="icon" transform="translate(-1527.244 -2262.668)">
    <path id="Path_74" data-name="Path 74" d="M1643.951,2312.518a25.034,25.034,0,0,1-5.053-.516l.46-2.221a23.083,23.083,0,0,0,4.593.465,22.638,22.638,0,1,0-17.181-7.888l-1.715,1.478a24.927,24.927,0,1,1,18.9,8.682Z" fill="#794515"/>
    <rect id="Rectangle_30" data-name="Rectangle 30" width="2.272" height="78.601" transform="translate(1642.822 2276.54)" fill="#794515"/>
    <path id="Path_75" data-name="Path 75" d="M1644.844,2298.547l-1.772-1.409,8.122-10.251,1.771,1.41Z" fill="#794515"/>
    <rect id="Rectangle_31" data-name="Rectangle 31" width="2.275" height="63.392" transform="translate(1545.093 2293.748)" fill="#794515"/>
    <path id="Path_76" data-name="Path 76" d="M1545.435,2311.087l-8.124-7.954,1.595-1.618,8.124,7.951Z" fill="#794515"/>
    <path id="Path_77" data-name="Path 77" d="M1546.227,2321.29a18.95,18.95,0,1,1,17.762-12.263l-2.128-.8a16.693,16.693,0,1,0-7.889,8.9l1.052,2.006A18.972,18.972,0,0,1,1546.227,2321.29Z" fill="#794515"/>
    <g id="Group_139" data-name="Group 139">
      <g id="Group_138" data-name="Group 138">
        <g id="Group_137" data-name="Group 137">
          <path id="Path_78" data-name="Path 78" d="M1637.769,2324.833a17.284,17.284,0,0,1,13.827,10.533l4.291,10.391a14.156,14.156,0,0,0,13.076,8.753h.864a1.548,1.548,0,1,1,0,3.1h-.864a17.24,17.24,0,0,1-15.942-10.667l-4.287-10.389a14.164,14.164,0,0,0-10.929-8.586" fill="#794515"/>
        </g>
      </g>
    </g>
    <rect id="Rectangle_32" data-name="Rectangle 32" width="0.449" height="10.108" transform="translate(1603.393 2325.137)" fill="#794515"/>
    <rect id="Rectangle_33" data-name="Rectangle 33" width="0.448" height="10.108" transform="translate(1611.514 2325.137)" fill="#794515"/>
    <rect id="Rectangle_34" data-name="Rectangle 34" width="16.137" height="1.111" transform="translate(1620.873 2330.333)" fill="#794515"/>
    <rect id="Rectangle_35" data-name="Rectangle 35" width="16.137" height="1.116" transform="translate(1620.873 2334.937)" fill="#794515"/>
    <rect id="Rectangle_36" data-name="Rectangle 36" width="16.137" height="1.116" transform="translate(1620.873 2339.548)" fill="#794515"/>
    <rect id="Rectangle_37" data-name="Rectangle 37" width="16.137" height="1.12" transform="translate(1620.873 2344.151)" fill="#794515"/>
    <rect id="Rectangle_38" data-name="Rectangle 38" width="84.633" height="1.905" transform="translate(1554.496 2324.833)" fill="#794515"/>
    <rect id="Rectangle_39" data-name="Rectangle 39" width="63.507" height="1.908" transform="translate(1554.496 2308.608)" fill="#794515"/>
    <rect id="Rectangle_40" data-name="Rectangle 40" width="126.55" height="1.905" transform="translate(1538.114 2355.408)" fill="#794515"/>
    <path id="Path_79" data-name="Path 79" d="M1574.507,2357.213h-20.859v-32.277h20.859Zm-19.159-1.7H1572.8v-28.876h-17.456Z" fill="#794515"/>
    <rect id="Rectangle_41" data-name="Rectangle 41" width="20.858" height="2.655" transform="translate(1553.648 2330.279)" fill="#794515"/>
    <rect id="Rectangle_42" data-name="Rectangle 42" width="20.858" height="2.654" transform="translate(1553.648 2336.477)" fill="#794515"/>
    <rect id="Rectangle_43" data-name="Rectangle 43" width="20.858" height="2.654" transform="translate(1553.648 2342.678)" fill="#794515"/>
    <rect id="Rectangle_44" data-name="Rectangle 44" width="20.858" height="2.652" transform="translate(1553.648 2348.879)" fill="#794515"/>
    <rect id="Rectangle_45" data-name="Rectangle 45" width="1.521" height="28.666" transform="translate(1637.01 2326.419)" fill="#794515"/>
    <rect id="Rectangle_46" data-name="Rectangle 46" width="1.52" height="28.666" transform="translate(1619.353 2326.419)" fill="#794515"/>
    <path id="Path_80" data-name="Path 80" d="M1639.972,2326.636H1617.16V2304.6h22.812Zm-21.114-1.7h19.419V2306.3h-19.419Z" fill="#794515"/>
    <path id="Path_81" data-name="Path 81" d="M1635.56,2326.636h-13.99v-8.33a7,7,0,1,1,13.99,0Zm-12.286-1.7h10.583v-6.63a5.292,5.292,0,1,0-10.583,0Z" fill="#794515"/>
    <path id="Path_82" data-name="Path 82" d="M1603.615,2338.778a1.885,1.885,0,1,1,1.885-1.887A1.883,1.883,0,0,1,1603.615,2338.778Zm0-3.284a1.4,1.4,0,1,0,1.4,1.4A1.4,1.4,0,0,0,1603.615,2335.494Z" fill="#794515"/>
    <path id="Path_83" data-name="Path 83" d="M1611.735,2338.778a1.885,1.885,0,1,1,1.885-1.887A1.89,1.89,0,0,1,1611.735,2338.778Zm0-3.284a1.4,1.4,0,1,0,1.4,1.4A1.4,1.4,0,0,0,1611.735,2335.494Z" fill="#794515"/>
    <rect id="Rectangle_47" data-name="Rectangle 47" width="0.439" height="10.108" transform="translate(1581.014 2325.137)" fill="#794515"/>
    <rect id="Rectangle_48" data-name="Rectangle 48" width="0.448" height="10.108" transform="translate(1589.126 2325.137)" fill="#794515"/>
    <path id="Path_84" data-name="Path 84" d="M1581.231,2338.778a1.885,1.885,0,1,1,1.884-1.887A1.881,1.881,0,0,1,1581.231,2338.778Zm0-3.284a1.4,1.4,0,1,0,1.4,1.4A1.4,1.4,0,0,0,1581.231,2335.494Z" fill="#794515"/>
    <path id="Path_85" data-name="Path 85" d="M1589.356,2338.778a1.886,1.886,0,1,1,1.881-1.887A1.883,1.883,0,0,1,1589.356,2338.778Zm0-3.284a1.4,1.4,0,1,0,1.389,1.4A1.4,1.4,0,0,0,1589.356,2335.494Z" fill="#794515"/>
    <path id="Path_86" data-name="Path 86" d="M1639.972,2306.225H1617.16v-3.983h22.812Zm-21.114-1.7h19.419v-.591h-19.419Z" fill="#794515"/>
    <rect id="Rectangle_49" data-name="Rectangle 49" width="3.076" height="18.878" transform="translate(1553.648 2307.759)" fill="#794515"/>
    <rect id="Rectangle_50" data-name="Rectangle 50" width="3.08" height="18.878" transform="translate(1571.427 2307.759)" fill="#794515"/>
    <path id="Path_87" data-name="Path 87" d="M1555.185,2309.458a2.427,2.427,0,1,1,2.436-2.429A2.429,2.429,0,0,1,1555.185,2309.458Zm0-3.155a.728.728,0,1,0,.731.726A.728.728,0,0,0,1555.185,2306.3Z" fill="#794515"/>
    <path id="Path_88" data-name="Path 88" d="M1572.961,2309.458a2.427,2.427,0,1,1,2.43-2.429A2.427,2.427,0,0,1,1572.961,2309.458Zm0-3.155a.728.728,0,1,0,.73.726A.732.732,0,0,0,1572.961,2306.3Z" fill="#794515"/>
  </g>
</svg>
