<svg xmlns="http://www.w3.org/2000/svg" width="111.115" height="91.584" viewBox="0 0 111.115 91.584">
  <g id="icon" transform="translate(-765.465 -2018.34)">
    <g id="Group_36" data-name="Group 36">
      <g id="Group_15" data-name="Group 15">
        <g id="Group_14" data-name="Group 14">
          <g id="Group_13" data-name="Group 13">
            <path id="Path_33" data-name="Path 33" d="M805.591,2089.294h-2.918c0-9.848-7.693-17.859-17.147-17.859s-17.146,8.011-17.146,17.859h-2.915v-50.045c0-11.529,9-20.909,20.061-20.909s20.065,9.38,20.065,20.909Zm-20.065-67.889c-9.448,0-17.146,8-17.146,17.844v39.185a19.643,19.643,0,0,1,34.293,0v-39.185C802.673,2029.405,794.98,2021.405,785.526,2021.405Z" fill="#794515"/>
          </g>
        </g>
      </g>
      <g id="Group_17" data-name="Group 17">
        <g id="Group_16" data-name="Group 16">
          <path id="Path_34" data-name="Path 34" d="M876.58,2109.924H781.548c-.363-.033-16.083-2.452-16.083-24.456h3.061c0,19.367,13.1,21.4,13.228,21.413l91.765-.015v-69.03H804.043v-3.06H876.58Z" fill="#794515"/>
        </g>
      </g>
      <g id="Group_19" data-name="Group 19">
        <g id="Group_18" data-name="Group 18">
          <path id="Path_35" data-name="Path 35" d="M789.172,2070a17.94,17.94,0,0,0-2.349.183v32.472A16.412,16.412,0,1,0,789.172,2070Z" fill="#794515"/>
        </g>
      </g>
      <g id="Group_21" data-name="Group 21">
        <g id="Group_20" data-name="Group 20">
          <path id="Path_36" data-name="Path 36" d="M856.4,2095.647H833.775v-3.064h19.577v-42.608H804.13v-3.059H856.4Z" fill="#794515"/>
        </g>
      </g>
      <g id="Group_23" data-name="Group 23">
        <g id="Group_22" data-name="Group 22">
          <rect id="Rectangle_12" data-name="Rectangle 12" width="3.058" height="25.47" transform="translate(815.867 2048.451)" fill="#794515"/>
        </g>
      </g>
      <g id="Group_25" data-name="Group 25">
        <g id="Group_24" data-name="Group 24">
          <rect id="Rectangle_13" data-name="Rectangle 13" width="5.277" height="3.059" transform="translate(817.397 2068.206)" fill="#794515"/>
        </g>
      </g>
      <g id="Group_27" data-name="Group 27">
        <g id="Group_26" data-name="Group 26">
          <rect id="Rectangle_14" data-name="Rectangle 14" width="23.474" height="3.059" transform="translate(831.406 2068.206)" fill="#794515"/>
        </g>
      </g>
      <g id="Group_29" data-name="Group 29">
        <g id="Group_28" data-name="Group 28">
          <rect id="Rectangle_15" data-name="Rectangle 15" width="3.06" height="9.463" transform="translate(836.063 2069.734)" fill="#794515"/>
        </g>
      </g>
      <g id="Group_31" data-name="Group 31">
        <g id="Group_30" data-name="Group 30">
          <rect id="Rectangle_16" data-name="Rectangle 16" width="3.06" height="6.367" transform="translate(836.063 2087.201)" fill="#794515"/>
        </g>
      </g>
      <g id="Group_33" data-name="Group 33">
        <g id="Group_32" data-name="Group 32">
          <rect id="Rectangle_17" data-name="Rectangle 17" width="3.062" height="7.644" transform="translate(816.05 2087.201)" fill="#794515"/>
        </g>
      </g>
      <g id="Group_35" data-name="Group 35">
        <g id="Group_34" data-name="Group 34">
          <rect id="Rectangle_18" data-name="Rectangle 18" width="22.884" height="3.065" transform="translate(799.612 2092.583)" fill="#794515"/>
        </g>
      </g>
    </g>
  </g>
</svg>
