<svg xmlns="http://www.w3.org/2000/svg" width="89.673" height="87.457" viewBox="0 0 89.673 87.457">
  <g id="icon" transform="translate(-605.011 -2266.409)">
    <g id="Group_144" data-name="Group 144">
      <path id="Path_95" data-name="Path 95" d="M662.946,2291.067l-36.822,0a9,9,0,0,1-8.873-8.448,62.064,62.064,0,0,1,.147-8.725,8.772,8.772,0,0,1,8.658-7.477l19.134-.006h25.043l2.831,0a8.928,8.928,0,0,1,8.754,8.8q.009,3.53,0,7.058a8.934,8.934,0,0,1-8.824,8.8Zm-17.057-1.545,27.105,0a7.462,7.462,0,0,0,7.278-7.255q.012-3.525,0-7.051a7.452,7.452,0,0,0-7.212-7.255l-2.827,0H645.19l-19.134,0a7.194,7.194,0,0,0-7.121,6.1,60.883,60.883,0,0,0-.138,8.51,7.414,7.414,0,0,0,7.327,6.951Zm-15.505-3.528a5.566,5.566,0,0,1-1.572-.232,5.64,5.64,0,0,1-3.5-3.243,5.052,5.052,0,0,1,.223-4.433,22.061,22.061,0,0,1,3.682-4.88,1.71,1.71,0,0,1,1.231-.568,1.666,1.666,0,0,1,1.209.552,19.217,19.217,0,0,1,3.9,5.438,6.335,6.335,0,0,1,.353,1.211c.034.156.07.318.113.473l.03.112-.005.115A5.709,5.709,0,0,1,630.384,2285.994Zm.071-11.807a19.94,19.94,0,0,0-3.565,4.645,3.52,3.52,0,0,0-.152,3.1,3.878,3.878,0,0,0,3.646,2.518,4.148,4.148,0,0,0,4.117-3.858c-.031-.14-.066-.281-.094-.422a5.034,5.034,0,0,0-.26-.917,17.729,17.729,0,0,0-3.6-4.985Zm15.775,3.424c-.7,0-1.394-.006-2.092-.02a2.022,2.022,0,0,1-2.047-2.086,2.065,2.065,0,0,1,2.014-2.018c.287-.015.573-.019.862-.019l1.281.01,1.231-.009c.279,0,.555,0,.836.012a2.058,2.058,0,1,1,0,4.114C647.618,2277.6,646.925,2277.611,646.23,2277.611Zm-1.263-2.6c-.264,0-.526.005-.789.017a.517.517,0,0,0-.541.507.487.487,0,0,0,.53.508c1.381.028,2.751.023,4.128,0a.545.545,0,0,0,.585-.5c.006-.372-.327-.512-.61-.52-.266-.008-.528-.012-.791-.012l-1.231.006Zm27.865,2.592-11.479,0h-2.288l-5.174-.005a3.591,3.591,0,0,1-1.068-.139,1.869,1.869,0,0,1-1.35-1.975,2.858,2.858,0,0,1,.884-1.572,1.981,1.981,0,0,1,1.412-.428l10.971-.013q4.329,0,8.659.018a3.12,3.12,0,0,1,1.825.692,1.768,1.768,0,0,1,.391,2.221,2.056,2.056,0,0,1-1.885,1.2Zm-9.192-1.549,10.068,0a.521.521,0,0,0,.522-.344c.073-.14.079-.282.021-.331a1.614,1.614,0,0,0-.86-.346q-4.323-.021-8.651-.018l-10.967.014a1.278,1.278,0,0,0-.405.038,1.44,1.44,0,0,0-.359.594c-.018.167.139.278.284.327a2.275,2.275,0,0,0,.6.064l5.172,0Z" fill="#794515"/>
      <path id="Path_96" data-name="Path 96" d="M684.636,2353.866l-4.351-.02-30.39.005-14.244-.005-23.8.007a6.409,6.409,0,1,1-.5-12.8l1.539,0q3.141,0,6.289.015t6.284.013l12.694,0q24.9,0,49.8-.057a6.716,6.716,0,0,1,6.567,4.983,6.513,6.513,0,0,1-1.171,5.36,6.149,6.149,0,0,1-4.594,2.423C687.388,2353.848,686.012,2353.866,684.636,2353.866Zm-4.351-1.565,4.351.02c1.352,0,2.7-.017,4.049-.084a4.538,4.538,0,0,0,3.443-1.814,4.961,4.961,0,0,0,.891-4.088,5.137,5.137,0,0,0-5.029-3.772q-24.937.074-49.83.057H625.466q-3.144,0-6.289-.013t-6.284-.014l-1.535,0a4.812,4.812,0,0,0-4.316,6.9,4.856,4.856,0,0,0,4.809,2.813l38.044,0,11.071,0Z" fill="#794515"/>
      <path id="Path_97" data-name="Path 97" d="M681.154,2300.269H617.893v-11.515l1.9,1.281c.442.3.87.6,1.32.872a9.72,9.72,0,0,0,5.116,1.411l46.469,0a10.064,10.064,0,0,0,6.647-2.424,3.727,3.727,0,0,1,.373-.269l1.431-1.014Zm-61.716-1.546H679.61v-7.066a11.535,11.535,0,0,1-6.907,2.212l-46.469-.007a11.254,11.254,0,0,1-5.918-1.632q-.441-.273-.878-.567Z" fill="#794515"/>
      <path id="Path_98" data-name="Path 98" d="M655.4,2339.945H643.682l1.491-38.312h8.718Zm-10.112-1.545h8.5l-1.386-35.221h-5.748Z" fill="#794515"/>
      <path id="Path_99" data-name="Path 99" d="M642.451,2339.914H630.792L631,2338c.119-1.12.24-2.229.367-3.339q.455-3.906.919-7.816l2.282-19.413c.168-1.443.337-2.887.458-4.336a1.488,1.488,0,0,1,1.651-1.531c1.039.02,2.018.024,3.005.024l4.262,0Zm-9.938-1.546h8.452l1.371-35.24-2.656.005c-1,0-1.988-.005-2.971-.025a.9.9,0,0,0-.133,0c0,.027-.006.066-.012.115-.121,1.46-.3,2.923-.464,4.383l-2.283,19.415q-.464,3.9-.912,7.812c-.133,1.1-.248,2.21-.367,3.325Z" fill="#794515"/>
      <path id="Path_100" data-name="Path 100" d="M668.295,2339.94H656.632l-1.5-38.244.978-.08c.183-.017.346-.033.507-.033H659.8c.917,0,1.827,0,2.739-.015h0a1.334,1.334,0,0,1,1.473,1.309q1.05,9.222,2.125,18.442l1.79,15.176c.071.576.131,1.158.19,1.753Zm-10.179-1.545h8.462c-.06-.581-.117-1.15-.188-1.716L664.6,2321.5q-1.069-9.189-2.119-18.38c-.95.007-1.816.009-2.684.009l-2.551,0h-.514Z" fill="#794515"/>
      <path id="Path_101" data-name="Path 101" d="M628.131,2339.972h-.01c-1.549-.012-3.095-.014-4.652-.014l-5.651,0,7.081-36.492c.315-1.63.632-1.886,2.258-1.886l5.205,0c.17,0,.331.009.511.021l1.107.055-3.586,30.873q-.354,2.989-.7,5.987A1.448,1.448,0,0,1,628.131,2339.972Zm-4.662-1.56c1.562,0,3.11,0,4.662.015v0a.526.526,0,0,0,.112-.008c.144-2.078.38-4.079.614-6.075l3.4-29.22-5.1,0c-.22,0-.461,0-.608.008-.037.137-.079.362-.122.582l-6.744,34.7Z" fill="#794515"/>
      <path id="Path_102" data-name="Path 102" d="M670.856,2339.989a1.329,1.329,0,0,1-1.467-1.335c-.48-4.328-.985-8.653-1.49-12.977l-2.647-22.547c-.018-.163-.024-.322-.032-.5l-.04-.809.8-.191H673.8l7.441,38.217-1.055.1a4.123,4.123,0,0,1-.478.035h-4.418c-1.469,0-2.935,0-4.407.014Zm-4.042-36.816,2.622,22.324c.5,4.318,1.007,8.631,1.484,12.945,1.458-.012,2.911-.013,4.368-.013h4.1l-6.867-35.256Z" fill="#794515"/>
      <path id="Path_103" data-name="Path 103" d="M607.942,2340.166l2.492-9.866q3.477-13.7,6.953-27.4a1.567,1.567,0,0,1,1.62-1.34c.658.026,1.193.032,1.739.032l3.3-.011-7.461,38.3Zm11.063-37.072c-.065,0-.089.06-.121.187q-3.463,13.7-6.952,27.4l-1.993,7.873,5.365-.174,6.868-35.25-1.426.009c-.567,0-1.124-.006-1.679-.031A.244.244,0,0,0,619.005,2303.094Z" fill="#794515"/>
      <path id="Path_104" data-name="Path 104" d="M691.093,2340.03h-8.57l-7.489-38.448,2.972,0c.838,0,1.657.005,2.472.031.838.021,1.155,1.168,1.155,1.177.373,1.422.732,2.847,1.092,4.272Zm-7.3-1.546h5.316l-7.885-31.049c-.359-1.419-.718-2.838-1.086-4.251-.005-.011-.009-.024-.016-.039-.7-.017-1.4-.022-2.119-.022h-1.095Z" fill="#794515"/>
    </g>
  </g>
</svg>
