<svg xmlns="http://www.w3.org/2000/svg" width="113.302" height="75.65" viewBox="0 0 113.302 75.65">
  <g id="icon" transform="translate(-356.465 -2026.307)">
    <g id="Group_56" data-name="Group 56">
      <g id="Group_39" data-name="Group 39">
        <path id="Path_37" data-name="Path 37" d="M467.856,2081.507s-36.359-1.278-71.768-2.693c0,0,32.117-23.978,72.109-11.314Z" fill="#794515"/>
      </g>
      <g id="Group_40" data-name="Group 40">
        <path id="Path_38" data-name="Path 38" d="M468.546,2054.626v9.345s-12.062-5.178-24.517-3.444L458,2044.771Z" fill="#794515"/>
      </g>
      <g id="Group_41" data-name="Group 41">
        <path id="Path_39" data-name="Path 39" d="M387.51,2049.633l9.22,12.762-8.324.218-5.739-7.444Z" fill="#794515"/>
      </g>
      <g id="Group_42" data-name="Group 42">
        <path id="Path_40" data-name="Path 40" d="M367.967,2040.639l14.7,22.83a88.871,88.871,0,0,0-24.385,6.572v-14.006Z" fill="#794515"/>
      </g>
      <g id="Group_43" data-name="Group 43">
        <path id="Path_41" data-name="Path 41" d="M357.937,2074.712v5.362l25.422-.838s23.865-11.537,30.439-13.606C413.8,2065.63,379.708,2062.184,357.937,2074.712Z" fill="#794515"/>
      </g>
      <g id="Group_51" data-name="Group 51">
        <g id="Group_46" data-name="Group 46">
          <rect id="Rectangle_19" data-name="Rectangle 19" width="42.788" height="1.233" transform="translate(421.367 2097.506)" fill="#794515"/>
          <g id="Group_45" data-name="Group 45">
            <g id="Group_44" data-name="Group 44">
              <path id="Path_42" data-name="Path 42" d="M468.518,2098.123a53.267,53.267,0,0,0-6.9,3.834l1.386-3.834-1.386-3.831A53.482,53.482,0,0,0,468.518,2098.123Z" fill="#794515"/>
            </g>
          </g>
        </g>
        <g id="Group_47" data-name="Group 47">
          <path id="Path_43" data-name="Path 43" d="M410.4,2098.122a3.3,3.3,0,1,1,3.3,3.3A3.305,3.305,0,0,1,410.4,2098.122Z" fill="#794515"/>
        </g>
        <g id="Group_50" data-name="Group 50">
          <rect id="Rectangle_20" data-name="Rectangle 20" width="42.784" height="1.233" transform="translate(362.813 2097.506)" fill="#794515"/>
          <g id="Group_49" data-name="Group 49">
            <g id="Group_48" data-name="Group 48">
              <path id="Path_44" data-name="Path 44" d="M358.4,2098.122a53.691,53.691,0,0,0,6.892-3.837l-1.386,3.837,1.386,3.829A52.827,52.827,0,0,0,358.4,2098.122Z" fill="#794515"/>
            </g>
          </g>
        </g>
      </g>
      <g id="Group_53" data-name="Group 53">
        <g id="Group_52" data-name="Group 52">
          <path id="Path_45" data-name="Path 45" d="M469.767,2083.418l-1.382-.184a439.128,439.128,0,0,0-57.458-3.382c-29.609,0-52.888,2.233-53.115,2.255l-1.347.128V2026.33l1.317.1c17.979,1.414,36.749,2.126,55.793,2.126,32.4,0,54.634-2.1,54.858-2.118l1.334-.132Zm-58.84-6.014a445.355,445.355,0,0,1,56.394,3.224V2028.99c-5.279.447-25.736,2.015-53.746,2.015-18.641,0-37.023-.682-54.665-2.034v50.578C364.3,2079.079,385.251,2077.4,410.927,2077.4Z" fill="#794515"/>
        </g>
      </g>
      <g id="Group_55" data-name="Group 55">
        <g id="Group_54" data-name="Group 54">
          <path id="Path_46" data-name="Path 46" d="M404.9,2043.555a3.84,3.84,0,1,1-3.84-3.834A3.842,3.842,0,0,1,404.9,2043.555Z" fill="#794515"/>
        </g>
      </g>
    </g>
  </g>
</svg>
