<svg xmlns="http://www.w3.org/2000/svg" width="125.838" height="59.363" viewBox="0 0 125.838 59.363">
  <g id="icon" transform="translate(-1522.227 -2034.451)">
    <g id="Group_62" data-name="Group 62">
      <g id="Group_59" data-name="Group 59">
        <path id="Path_47" data-name="Path 47" d="M1629.074,2067.686H1606.3a2.066,2.066,0,0,1,0-4.131h22.779a6.814,6.814,0,1,0-6.817-6.812,2.064,2.064,0,1,1-4.128,0,10.945,10.945,0,1,1,10.945,10.943Z" fill="#794515"/>
      </g>
      <g id="Group_60" data-name="Group 60">
        <path id="Path_48" data-name="Path 48" d="M1637.122,2093.814a10.958,10.958,0,0,1-10.945-10.945,2.065,2.065,0,1,1,4.129,0,6.817,6.817,0,1,0,6.816-6.814H1585.4a2.064,2.064,0,0,1,0-4.129h51.722a10.944,10.944,0,0,1,0,21.888Z" fill="#794515"/>
      </g>
      <g id="Group_61" data-name="Group 61">
        <path id="Path_49" data-name="Path 49" d="M1598.315,2088.664h-57a19.086,19.086,0,0,1-3.3-37.885,20.59,20.59,0,0,1,36.942-7.645,20.386,20.386,0,0,1,14.5-5.986,20.639,20.639,0,0,1,20.608,20.614,2.064,2.064,0,1,1-4.128,0,16.471,16.471,0,0,0-29.637-9.908l-1.978,2.624-1.505-2.928a16.467,16.467,0,0,0-30.989,5.348l-.211,1.635-1.649.146a14.958,14.958,0,0,0,1.347,29.856h57a2.065,2.065,0,1,1,0,4.129Z" fill="#794515"/>
      </g>
    </g>
  </g>
</svg>
