<svg xmlns="http://www.w3.org/2000/svg" width="87.986" height="96.996" viewBox="0 0 87.986 96.996">
  <g id="icon" transform="translate(-1206.547 -2261.639)">
    <path id="Path_118" data-name="Path 118" d="M1226.37,2297.636a15.683,15.683,0,0,0,3,.263q21.121.03,42.245.024a8.61,8.61,0,0,0,8.526-6.966,8.52,8.52,0,0,0-5.808-9.613c-.369-.123-.73-.278-1.088-.419,2.325-6.985-3.886-13.416-11.416-10.55-.175-.341-.369-.685-.549-1.039a13.7,13.7,0,0,0-13.495-7.647,13.5,13.5,0,0,0-11.8,9.63c-.325,1.027-.819,1.245-1.823,1.238a7.9,7.9,0,0,0-8.11,6.129c-.383,1.744-.064,3.645-.064,5.584-.235.1-.6.237-.971.4a6.747,6.747,0,0,0-4.142,7.33A6.429,6.429,0,0,0,1226.37,2297.636Zm-3.141-6.982a4.424,4.424,0,0,1,4.338-4.051c2.316-.084,2.63-.631,1.476-2.579a5.667,5.667,0,0,1,.261-6.658,5.812,5.812,0,0,1,6.294-2.261c1.754.4,2.143.119,2.425-1.667a11.063,11.063,0,0,1,10.52-9.378,11.331,11.331,0,0,1,11.11,7.743c.732,2.26.907,2.325,2.983,1.114a5.893,5.893,0,0,1,7.1.975,5.719,5.719,0,0,1,.6,6.987,2.516,2.516,0,0,0-.386,1.869c.15.368,1.079.57,1.672.594a6.09,6.09,0,1,1-.222,12.169c-7.116.014-14.232,0-21.344,0v-.032q-10.149,0-20.29-.008a17.494,17.494,0,0,1-2.868-.206A4.232,4.232,0,0,1,1223.229,2290.654Z" fill="#794515" fill-rule="evenodd"/>
    <path id="Path_119" data-name="Path 119" d="M1264.76,2313.533c-.7-.064-1.41-.059-2.118-.059q-6.055-.012-12.116-.005v.006h-5.6c-2.776.009-5.553-.046-8.329.053-2.8.1-3.945,1.911-2.994,4.556a10.493,10.493,0,0,0,.807,1.789,4.244,4.244,0,0,1,.16,3.735,23.655,23.655,0,0,0-1.2,6.159c-.157,5.952-.014,11.914-.066,17.87a13.925,13.925,0,0,0,3.917,9.557,4.134,4.134,0,0,0,3.339,1.438c6.664-.055,13.332.023,19.991-.073a4.707,4.707,0,0,0,2.97-1.114,12.879,12.879,0,0,0,4.244-9.383c.031-6.412.018-12.823-.006-19.236a6.724,6.724,0,0,0-.375-2.824,8.464,8.464,0,0,1,.128-8.268C1268.631,2315.564,1267.231,2313.764,1264.76,2313.533Zm-2.643,41.949a2.782,2.782,0,0,1-1.85.718c-3.275.071-6.562.03-9.842.03-3.181,0-6.361.056-9.542-.039a3.172,3.172,0,0,1-2.069-.9,11.439,11.439,0,0,1-3.156-7.951c.059-5.853-.053-11.71.07-17.564a14.411,14.411,0,0,1,1-4.977,6.833,6.833,0,0,0-.235-6.221c-1.31-2.422-1.089-2.717,1.588-2.718q12.648,0,25.29,0c2.169,0,2.475.346,1.413,2.235a7.479,7.479,0,0,0-.183,7.34,10.438,10.438,0,0,1,.751,4.117c.078,6.006.017,12.015.042,18.022A11.587,11.587,0,0,1,1262.117,2355.482Z" fill="#794515" fill-rule="evenodd"/>
    <path id="Path_120" data-name="Path 120" d="M1293.655,2329.688a4.439,4.439,0,0,1,.151-4.015c1.625-3.267.5-5.029-3.122-5.126-.248,0-.5-.008-.754-.008q-8.558-.006-17.109,0a2.375,2.375,0,0,0-1.179.139c-.372.245-.82.708-.827,1.086a1.6,1.6,0,0,0,.785,1.1,2.692,2.692,0,0,0,1.317.168q8.4.017,16.807.011h2.628c-1.455,2.762-2.592,5.265-.562,8.1-.991.06-1.576.125-2.162.125-4.9.011-9.792,0-14.688.014a3.826,3.826,0,0,0-1.492.118,1.572,1.572,0,0,0-.894,1.018,1.592,1.592,0,0,0,.756,1.126,2.644,2.644,0,0,0,1.314.161q7.806.01,15.6,0h1.8v13.585h-1.845q-6.359,0-12.722,0c-1.062,0-2.12.02-3.182.016-.882,0-1.769.188-1.775,1.2,0,.958.8,1.3,1.727,1.257.3-.018.6,0,.9,0q7.43.006,14.841,0h1.932c.163.151.319.3.484.457-.749,1.553-1.467,3.12-2.258,4.653a2.543,2.543,0,0,1-2.6,1.39c-4.991-.077-9.99-.03-14.989-.038-.863,0-1.72.064-1.764,1.158-.047,1.114.776,1.236,1.662,1.234,5.348-.011,10.705.037,16.052-.051a3.9,3.9,0,0,0,2.411-.984,10.718,10.718,0,0,0,3.585-7.9c.025-5.35.055-10.7-.03-16.049A11.064,11.064,0,0,0,1293.655,2329.688Z" fill="#794515" fill-rule="evenodd"/>
    <path id="Path_121" data-name="Path 121" d="M1228.465,2323.047c.934,0,1.83-.153,1.824-1.294-.008-1.07-.89-1.224-1.746-1.224-6.157,0-12.315-.035-18.476.042-3.237.04-4.275,1.851-2.953,4.854a4.579,4.579,0,0,0,.322.686,3.246,3.246,0,0,1,.133,3.163,11.968,11.968,0,0,0-.942,3.773c-.1,5.652-.1,11.3-.03,16.957a10.369,10.369,0,0,0,3.58,7.588,4.425,4.425,0,0,0,2.724.973c4.593.1,9.189.044,13.784.042a12.946,12.946,0,0,0,2.563-.07c.409-.085,1.047-.722,1-1.02a2.2,2.2,0,0,0-1.016-1.228c-.286-.191-.784-.059-1.187-.059-4.847,0-9.69.016-14.537-.012a2.64,2.64,0,0,1-1.692-.386,9.516,9.516,0,0,1-2.852-6.068h1.881q7.72,0,15.448,0c.454,0,1,.111,1.333-.1a1.972,1.972,0,0,0,.913-1.215c.029-.32-.522-.819-.925-1.019a3.172,3.172,0,0,0-1.336-.119q-8.028-.021-16.05-.038c-.38,0-.767-.067-1.129-.1v-13.457h1.774q7.727,0,15.447,0c.455,0,1.006.109,1.329-.1a1.856,1.856,0,0,0,.849-1.229c.023-.315-.518-.812-.914-.982a3.937,3.937,0,0,0-1.49-.114c-4.9-.006-9.792,0-14.689-.009-.585,0-1.167-.083-2.141-.159,2.148-2.845.822-5.336-.522-8.068h2.462Q1219.835,2323.047,1228.465,2323.047Z" fill="#794515" fill-rule="evenodd"/>
    <path id="Path_122" data-name="Path 122" d="M1236.959,2304.518a2.681,2.681,0,0,0,.221-.7c.15-.165.3-.332.447-.5a3.7,3.7,0,0,0-1.348-.595,1.933,1.933,0,0,0-1.376.591,46.014,46.014,0,0,0-3.054,4.49c-.239.41.079,1.146.134,1.729.583-.092,1.431.029,1.7-.312C1234.869,2307.731,1235.892,2306.109,1236.959,2304.518Z" fill="#794515" fill-rule="evenodd"/>
    <path id="Path_123" data-name="Path 123" d="M1267.367,2303.223c-1.164,1.512-2.227,3.109-3.24,4.727-.56.894-.013,1.791,1.243,1.806a2.209,2.209,0,0,0,.748-.516c1.113-1.558,2.236-3.113,3.2-4.757a1.8,1.8,0,0,0-.455-1.61C1268.655,2302.671,1267.627,2302.888,1267.367,2303.223Z" fill="#794515" fill-rule="evenodd"/>
    <path id="Path_124" data-name="Path 124" d="M1251.463,2302.906c-1.234,1.76-2.482,3.519-3.619,5.342a1.335,1.335,0,0,0,.392,1.264c.38.2,1.248.184,1.449-.088a57.957,57.957,0,0,0,3.492-5.076,1.211,1.211,0,0,0-1.163-1.735C1251.893,2302.675,1251.593,2302.728,1251.463,2302.906Z" fill="#794515" fill-rule="evenodd"/>
    <path id="Path_125" data-name="Path 125" d="M1251.647,2326.781c-.2-.374-.781-.811-1.116-.763a1.929,1.929,0,0,0-1.162.934c-1.354,2.465-2.575,5-3.957,7.442-1.324,2.324-2.727,4.568-3.122,7.3a8.488,8.488,0,0,0,7.727,9.822c4.637.407,8.9-3.663,8.9-9.558a40.112,40.112,0,0,0-1.8-4.958C1255.428,2333.531,1253.518,2330.163,1251.647,2326.781Zm4.419,18.127a5.689,5.689,0,0,1-7.262,3.92,6.207,6.207,0,0,1-3.943-7.649,11.941,11.941,0,0,1,.954-2.535c.616-1.2,1.334-2.361,2.04-3.521.834-1.362,1.7-2.708,2.793-4.453,1.875,3.386,3.758,6.368,5.187,9.556A7.644,7.644,0,0,1,1256.066,2344.908Z" fill="#794515" fill-rule="evenodd"/>
  </g>
</svg>
